<svg version="1.1" id="Layer_1" xmlns="http://www.w3.org/2000/svg" x="0" y="0" width="300" height="300" viewBox="-270 445.5 300 300" xml:space="preserve"><style type="text/css">.st0{fill:#b18a7f}.st1{fill:#00bcd4}.st2{fill:#fff}.st3{fill:#f6f6f6}.st4{fill:none;stroke:#c6c6c6;stroke-width:.6147;stroke-linecap:round;stroke-miterlimit:10}.st5{fill:#c6c6c6}.st6,.st7{fill:none;stroke:#f5f5f5;stroke-width:1.5;stroke-linecap:round;stroke-miterlimit:10}.st7{stroke:#fff}</style><g id="Layer_1_1_"><path class="st0" d="M-176.6 607.3l21.4 21.1L-181 683h-51.2z"/><path class="st1" d="M-176.6 652.1l83.8 7.4c3.7.3 6.9-2.4 7.3-6.1l11.6-130.5c.3-3.7-2.4-6.9-6.1-7.3l-83.8-7.4c-3.7-.3-6.9 2.4-7.3 6.1l-11.6 130.5c-.3 3.7 2.4 6.9 6.1 7.3z"/><path class="st2" d="M-175.3 637.1l83.6 7.4c.8.1 1.5-.5 1.6-1.3l9.9-111.8c.1-.8-.5-1.5-1.3-1.6l-83.6-7.4c-.8-.1-1.5.5-1.6 1.3l-9.9 111.8c-.1.8.5 1.5 1.3 1.6zM-135.4 651.9h-.4c-2.4-.2-4.2-2.3-3.9-4.7.2-2.4 2.3-4.2 4.7-3.9 2.4.2 4.2 2.3 3.9 4.7-.2 2.2-2.1 3.9-4.3 3.9zm-3.3-4.7c-.2 1.8 1.2 3.5 3 3.6 1.8.2 3.5-1.2 3.6-3 .2-1.8-1.2-3.5-3-3.6-1.8-.2-3.5 1.2-3.6 3zM-122.8 521.1c-1-.1-1.7-.9-1.6-1.8 0-.4.2-.8.6-1.1.3-.3.8-.4 1.2-.4s.8.2 1.1.6c.3.4.4.8.4 1.2-.1.8-.9 1.5-1.7 1.5zm0-2.4c-.2 0-.3.1-.4.2-.1.1-.2.3-.2.5 0 .4.2.7.6.7.4 0 .7-.2.7-.6 0-.2 0-.4-.2-.5-.1-.2-.3-.3-.5-.3z"/><path class="st3" d="M-133.1 640.9l-42.2-3.8c-.8-.1-1.4-.8-1.3-1.6l9.9-111.8c.1-.8.8-1.4 1.6-1.3l42.2 3.8-10.2 114.7z"/><path class="st4" d="M-151.1 532.7l19.7 1.7M-151.3 535.2l19.6 1.8M-151.5 537.9l12.3 1.1M-152.4 547.6l19.6 1.8M-152.6 550.2l19.6 1.8M-152.9 552.9l12.3 1.1M-153.7 562.7l19.6 1.7M-154 565.3l19.7 1.7M-154.2 567.9l12.3 1.1M-155.1 577.8l19.7 1.7M-155.3 580.4l19.6 1.7M-155.5 583l12.3 1.1"/><ellipse class="st4" cx="-159.2" cy="534" rx="4" ry="4"/><ellipse class="st5" cx="-159.2" cy="533.2" rx="1.4" ry="1.4"/><path class="st5" d="M-159.3 535.2c-.9-.1-2.9.2-3 1.2 0 0 1.1 1.4 2.7 1.6 1.6.2 2.9-1.1 2.9-1.1.1-.9-1.7-1.6-2.6-1.7z"/><path class="st4" d="M-156.4 593.1l19.6 1.8M-156.6 595.7l19.6 1.7M-156.9 598.4l12.3 1"/><ellipse class="st4" cx="-160.6" cy="549.1" rx="4" ry="4"/><ellipse class="st5" cx="-160.5" cy="548.2" rx="1.4" ry="1.4"/><path class="st5" d="M-160.7 550.2c-.9-.1-2.9.2-3 1.2 0 0 1.1 1.4 2.7 1.6 1.6.2 2.9-1.1 2.9-1.1.2-1-1.6-1.6-2.6-1.7z"/><ellipse class="st4" cx="-161.8" cy="564" rx="4" ry="4"/><ellipse class="st5" cx="-161.7" cy="563.1" rx="1.4" ry="1.4"/><path class="st5" d="M-161.9 565.2c-.9-.1-2.9.2-3 1.2 0 0 1.1 1.4 2.7 1.6 1.6.2 2.9-1.1 2.9-1.1.2-1-1.7-1.6-2.6-1.7z"/><ellipse class="st4" cx="-163.3" cy="579.2" rx="4" ry="4"/><ellipse class="st5" cx="-163.2" cy="578.4" rx="1.4" ry="1.4"/><path class="st5" d="M-163.3 580.4c-.9-.1-2.9.2-3 1.2 0 0 1.1 1.4 2.7 1.6s2.9-1.1 2.9-1.1c.1-.9-1.7-1.6-2.6-1.7z"/><g><ellipse class="st4" cx="-164.6" cy="594.6" rx="4" ry="4"/><ellipse class="st5" cx="-164.5" cy="593.6" rx="1.4" ry="1.4"/><path class="st5" d="M-164.7 595.7c-.9-.1-2.9.2-3 1.2 0 0 1.1 1.4 2.7 1.6 1.6.2 2.9-1.1 2.9-1.1.2-1-1.6-1.6-2.6-1.7z"/></g><path transform="matrix(.9961 .08805 -.08805 .9961 49.607 11.488)" class="st3" d="M-118.8 563.4H-92v9.4h-26.8z"/><path transform="matrix(.9961 .08805 -.08805 .9961 51.978 11.547)" class="st3" d="M-118.3 590.3h26.8v9.4h-26.8z"/><path transform="matrix(.9961 .08805 -.08805 .9961 54.764 12.174)" class="st3" d="M-124 622.2h26.8v9.4H-124z"/><path transform="matrix(.9961 .08805 -.08805 .9961 47.747 10.279)" class="st3" d="M-103.7 541.7h22.1v9.4h-22.1z"/><path class="st0" d="M-7.8 683s-42.7-50.7-52.2-78.3c-1.4-4-7-29-15.8-32.1-2.6-.9-7.2.2-7.2 4-2.4-4.2-4.4-7.4-9.5-6.3-3.3.7-4.4 3.7-3.6 8.6 0 0-3.8-5.3-6.7-8.9-6.7-8.4-14.4-2-9.7 6.7 1.6 2.8 8.3 13.7 14.3 25.3l-8.9-4.1c-6.8-3-12.1 4.2-5.5 9.3.3.3 20.2 14.4 27 19.7 7.3 5.7 32.4 55.9 32.4 55.9h45.4v.2z"/><path class="st6" d="M-43.5 635.2c-7.2-10.9-13.4-21.9-16.4-30.5-1.4-4-7-29-15.8-32.1-2.6-.9-7.2.2-7.2 4"/><path class="st7" d="M-80 515.7l-83.8-7.4c-3.7-.3-6.9 2.4-7.3 6.1l-7.9 89.5"/></g></svg>