<svg version="1.1" id="Layer_1" xmlns="http://www.w3.org/2000/svg" x="0" y="0" width="1872.5" height="79.14" viewBox="0 45.002 1872.5 79.14" xml:space="preserve"><path fill="#FFF" d="M-1574.453 204.147V26.229s12.297-.243 18.929 6.869c8.559-16.273 25.919-19.892 37.01-6.869 17.483-2.173 29.297 6.026 35.929 13.26 23.991-35.927 68.959-29.175 86.683 3.618 20.375-15.312 44.366-4.099 51.961 5.787 26.043-29.538 62.571-10.853 68.599 10.729 24.114-17.484 37.616 5.183 38.219 8.076 16.877-26.282 40.991-26.885 51.84-24.11 18.205-27.608 44.607-15.915 52.202-4.824 25.199-10.248 48.707 6.271 52.323 12.778 5.789-3.374 13.867-2.168 16.035-.24 20.616-26.28 54.856-12.898 60.281-11.213 13.622-24.593 37.735-11.812 41.833-7.112 12.299-26.281 37.013-9.281 37.375-5.063 14.466-5.423 27.489 2.895 33.999 11.453 28.451-40.269 76.554-22.907 87.285 3.739 27.127-16.878 47.26-1.689 51.48 6.63 22.302-30.744 66.548-14.709 70.528 10.609 21.702-15.432 34.961.24 37.613 8.439 13.503-22.063 36.533-27.729 44.128-24.713 6.505-22.186 37.613-19.05 44.603-13.626 9.528-20.734 32.554-11.21 35.207-3.858 16.877-2.168 31.949 6.271 34.721 11.817 20.734-34.602 74.266-27.488 87.284 5.061 25.56-18.324 46.542-.844 50.634 6.271 26.164-30.021 62.456-10.488 71.133 11.093 13.865-15.915 35.326-1.448 37.376 6.992 14.706-24.113 33.396-26.765 52.68-25.318 20.375-28.091 47.986-8.078 50.638-3.978 28.932-10.971 50.397 6.389 53.89 12.417 6.15-3.375 11.215-1.327 15.673 2.171 16.643-18.688 65.83-33.518 94.4 11.453 24.114-17.845 56.423 1.445 59.075 7.232 26.285-27.97 67.516-18.326 77.764 12.657 21.459-15.069 41.229 1.81 44.001 7.237 19.051-28.937 48.466-27.006 58.476-23.512 12.66-28.332 44.848-22.304 55.456-7.232v143.318h-1897.262l-.001-.12z" id="Layer_1_1_"/><path fill="#FFF" d="M321.191 204.088V60.684s12.297-.241 18.929 6.87c8.559-16.273 25.92-19.893 37.011-6.87 17.483-2.172 29.297 6.027 35.929 13.262 23.991-35.928 68.959-29.176 86.684 3.618 20.375-15.312 44.365-4.099 51.96 5.786 26.044-29.536 62.573-10.851 68.601 10.731 24.113-17.485 37.615 5.183 38.22 8.076 16.876-26.283 40.989-26.886 51.84-24.111 18.204-27.608 44.605-15.915 52.201-4.824 25.198-10.248 48.708 6.271 52.322 12.778 5.789-3.374 13.866-2.168 16.036-.24 20.615-26.28 54.855-12.898 60.28-11.213 13.623-24.593 37.734-11.812 41.833-7.113 12.301-26.28 37.014-9.28 37.375-5.062 14.465-5.423 27.489 2.895 34 11.453 28.45-40.269 76.553-22.907 87.284 3.739 27.128-16.879 47.261-1.689 51.479 6.63 22.304-30.744 66.549-14.709 70.527 10.61 21.702-15.434 34.961.24 37.612 8.439 13.504-22.064 36.533-27.73 44.129-24.715 6.504-22.186 37.611-19.049 44.604-13.626 9.528-20.735 32.553-11.211 35.207-3.858 16.876-2.168 31.948 6.271 34.72 11.817 20.735-34.602 74.268-27.488 87.284 5.061 25.562-18.324 46.542-.844 50.635 6.271 26.164-30.021 62.457-10.488 71.134 11.094 13.864-15.916 35.326-1.448 37.377 6.992 14.705-24.113 33.396-26.766 52.68-25.319 20.375-28.091 47.986-8.078 50.638-3.978 28.934-10.972 50.397 6.389 53.891 12.417 6.15-3.375 11.215-1.327 15.673 2.171 16.643-18.688 65.829-33.518 94.399 11.454 24.113-17.846 56.424 1.445 59.074 7.233 26.285-27.972 67.517-18.327 77.765 12.657 21.459-15.069 41.229 1.81 44.001 7.236 19.051-28.937 48.467-27.007 58.476-23.513 12.66-28.333 44.849-22.305 55.456-7.232v108.802H321.191v-.119z" id="Layer_1_2_"/></svg>