<?xml version="1.0" encoding="utf-8"?>
<!-- Generator: Adobe Illustrator 18.1.1, SVG Export Plug-In . SVG Version: 6.00 Build 0)  -->
<svg version="1.1" id="Layer_1" xmlns="http://www.w3.org/2000/svg" xmlns:xlink="http://www.w3.org/1999/xlink" x="0px" y="0px"
	 viewBox="-30.3 78.5 42.6 2.1" enable-background="new -30.3 78.5 42.6 2.1" xml:space="preserve">
<g>
	<path id="Layer_1_1_" fill="#FFFFFF" d="M-30.3,80.6v-1.9c0,0,0.1,0,0.2,0.1c0.1-0.2,0.3-0.2,0.4-0.1c0.2,0,0.3,0.1,0.4,0.2
		c0.3-0.4,0.8-0.3,1,0.1c0.2-0.2,0.5-0.1,0.6,0.1c0.3-0.3,0.7-0.1,0.8,0.1c0.3-0.2,0.4,0.1,0.4,0.1c0.2-0.3,0.5-0.3,0.6-0.3
		c0.2-0.3,0.5-0.2,0.6-0.1c0.3-0.1,0.5,0.1,0.6,0.1c0.1-0.1,0.2,0,0.2,0c0.2-0.3,0.6-0.1,0.7-0.1c0.2-0.3,0.4-0.1,0.5-0.1
		c0.1-0.3,0.4-0.1,0.4-0.1c0.2-0.1,0.3,0.1,0.4,0.1c0.3-0.5,0.9-0.2,1,0.1c0.3-0.2,0.5,0,0.6,0.1c0.2-0.3,0.8-0.2,0.8,0.1
		c0.2-0.2,0.4,0,0.4,0.1c0.2-0.2,0.4-0.3,0.5-0.3c0.1-0.2,0.4-0.2,0.5-0.2c0.1-0.2,0.3-0.1,0.4-0.1c0.2,0,0.3,0.1,0.4,0.1
		c0.2-0.4,0.8-0.3,1,0.1c0.3-0.2,0.5,0,0.6,0.1c0.3-0.3,0.7-0.1,0.8,0.1c0.2-0.2,0.4,0,0.4,0.1c0.2-0.3,0.3-0.3,0.6-0.3
		c0.2-0.3,0.5-0.1,0.6-0.1c0.3-0.1,0.6,0.1,0.6,0.1c0.1-0.1,0.1,0,0.2,0c0.1-0.1,0.6-0.2,0.9,0.2c0.3-0.2,0.6,0,0.6,0.1
		c0.3-0.3,0.8-0.2,0.9,0.2c0.2-0.2,0.5,0,0.5,0.1C-10.1,79-9.8,79-9.7,79c0.1-0.3,0.5-0.2,0.6-0.1v1.6H-30.3L-30.3,80.6z"/>
	<path id="Layer_1_2_" fill="#FFFFFF" d="M-9.2,80.6V79c0,0,0.1-0.3,0.2-0.3c0.1-0.2,0.3-0.2,0.4-0.1c0.2,0,0.4,0.1,0.4,0.2
		c0.3-0.4,0.8-0.3,1,0.1c0.2-0.2,0.5-0.1,0.6,0.1c0.3-0.3,0.7-0.1,0.8,0.1c0.3-0.2,0.4,0.1,0.4,0.1c0.2-0.3,0.5-0.3,0.6-0.3
		c0.2-0.3,0.5-0.2,0.6-0.1c0.3-0.1,0.5,0.1,0.6,0.1c0.1-0.1,0.2,0,0.2,0c0.2-0.3,0.7-0.1,0.7-0.1c0.2-0.3,0.4-0.1,0.5-0.1
		c0.1-0.3,0.4-0.1,0.4-0.1c0.2-0.1,0.3,0.1,0.4,0.1c0.3-0.5,0.9-0.2,1,0.1c0.3-0.2,0.5,0,0.6,0.1c0.2-0.3,0.8-0.2,0.8,0.1
		c0.2-0.2,0.4,0,0.4,0.1c0.2-0.2,0.4-0.3,0.5-0.3c0.1-0.2,0.4-0.2,0.5-0.2c0.1-0.2,0.4-0.1,0.4-0.1c0.2,0,0.4,0.1,0.4,0.1
		c0.2-0.4,0.8-0.3,1,0.1c0.3-0.2,0.5,0,0.6,0.1C5.4,78.5,5.8,78.8,6,79c0.2-0.2,0.4,0,0.4,0.1c0.2-0.3,0.4-0.3,0.6-0.3
		c0.2-0.3,0.5-0.1,0.6-0.1c0.4-0.1,0.6,0.1,0.6,0.1c0.1-0.1,0.1,0,0.2,0c0.1-0.1,0.7-0.2,1,0.2c0.3-0.2,0.7,0,0.7,0.1
		c0.4-0.3,0.8-0.2,1,0.2c0.2-0.2,0.5,0,0.5,0.1C11.7,79,12,79,12.1,79c0.1-0.3,0.5-0.2,0.7-0.1v1.6H-9.2L-9.2,80.6z"/>
</g>
</svg>
