<?xml version="1.0" encoding="utf-8"?>
<!-- Generator: Adobe Illustrator 18.1.0, SVG Export Plug-In . SVG Version: 6.00 Build 0)  -->
<!DOCTYPE svg PUBLIC "-//W3C//DTD SVG 1.1//EN" "http://www.w3.org/Graphics/SVG/1.1/DTD/svg11.dtd">
<svg version="1.1" id="Layer_1" xmlns="http://www.w3.org/2000/svg" xmlns:xlink="http://www.w3.org/1999/xlink" x="0px" y="0px"
	 viewBox="0 0 40 40" enable-background="new 0 0 40 40" xml:space="preserve">
<g>
	<circle fill="#EB4541" cx="20" cy="20" r="20"/>
	<g>
		<path fill="#FFFFFF" d="M21.7,8.9h6l-2,1.3h-1.9c0.7,0.6,1.3,1.2,1.6,1.9c0.4,0.7,0.5,1.4,0.5,2.3c0,0.7-0.1,1.3-0.4,1.9
			c-0.2,0.6-0.5,1-0.9,1.3c-0.3,0.3-0.7,0.7-1,0.9c-0.3,0.3-0.6,0.6-0.9,0.9c-0.2,0.3-0.4,0.6-0.4,1c0,0.3,0.2,0.7,0.5,1
			c0.3,0.3,0.7,0.7,1.1,1s0.9,0.7,1.3,1.1s0.8,0.9,1.1,1.5s0.5,1.3,0.5,2c0,0.9-0.2,1.7-0.7,2.5c-0.7,1.2-1.7,2-3,2.6
			s-2.8,0.8-4.3,0.8c-1.3,0-2.5-0.2-3.6-0.6c-1.1-0.4-1.9-1.1-2.5-2c-0.3-0.6-0.5-1.2-0.5-1.9c0-0.8,0.2-1.5,0.6-2.2
			c0.4-0.7,1-1.2,1.7-1.7c1.3-0.8,3.2-1.3,5.8-1.4c-0.3-0.4-0.5-0.7-0.7-1.1s-0.2-0.7-0.2-1.1c0-0.4,0.1-0.8,0.3-1.2
			c-0.4,0-0.8,0.1-1,0.1c-1.4,0-2.6-0.5-3.6-1.4c-1-0.9-1.5-2.1-1.5-3.5c0-0.8,0.2-1.6,0.5-2.3s0.8-1.4,1.4-1.9
			c0.7-0.6,1.6-1.1,2.6-1.4S20.6,8.9,21.7,8.9z M25,28.2c0-0.2,0-0.5-0.1-0.7s-0.1-0.4-0.2-0.6c-0.1-0.2-0.2-0.4-0.4-0.6
			c-0.2-0.2-0.3-0.4-0.4-0.5s-0.3-0.3-0.6-0.5c-0.3-0.2-0.4-0.4-0.5-0.4c-0.1-0.1-0.3-0.2-0.6-0.4s-0.5-0.4-0.5-0.4
			c-0.2,0-0.4,0-0.7,0c-0.5,0-1,0-1.5,0.1s-1,0.2-1.5,0.4c-0.5,0.2-1,0.4-1.4,0.7c-0.4,0.3-0.7,0.6-1,1.1c-0.3,0.4-0.4,1-0.4,1.5
			c0,0.5,0.1,1,0.3,1.5c0.2,0.4,0.5,0.8,0.9,1.1c0.4,0.3,0.8,0.5,1.3,0.7c0.5,0.2,1,0.3,1.4,0.4c0.5,0.1,1,0.1,1.5,0.1
			c0.6,0,1.1-0.1,1.6-0.2c0.5-0.1,1-0.3,1.4-0.6c0.4-0.2,0.8-0.6,1.1-1.1C24.9,29.3,25,28.8,25,28.2z M23.3,15.9
			c0-0.6-0.1-1.2-0.2-1.8c-0.2-0.6-0.4-1.3-0.7-1.9c-0.3-0.6-0.7-1.1-1.2-1.5s-1.1-0.6-1.7-0.6c-0.4,0-0.8,0.1-1.2,0.3
			c-0.4,0.2-0.7,0.4-1,0.8c-0.4,0.6-0.7,1.3-0.7,2.3c0,0.4,0,0.9,0.1,1.4s0.2,1,0.5,1.5c0.2,0.5,0.5,0.9,0.8,1.3s0.7,0.7,1.1,1
			c0.4,0.2,0.9,0.4,1.4,0.4c0.4,0,0.7-0.1,1.1-0.2c0.4-0.2,0.7-0.4,0.9-0.6C23,17.6,23.3,16.8,23.3,15.9z"/>
	</g>
</g>
</svg>
