<?xml version="1.0" encoding="utf-8"?>
<!-- Generator: Adobe Illustrator 18.1.1, SVG Export Plug-In . SVG Version: 6.00 Build 0)  -->
<!DOCTYPE svg PUBLIC "-//W3C//DTD SVG 1.1//EN" "http://www.w3.org/Graphics/SVG/1.1/DTD/svg11.dtd">
<svg version="1.1" id="Layer_1" xmlns="http://www.w3.org/2000/svg" xmlns:xlink="http://www.w3.org/1999/xlink" x="0px" y="0px"
	 viewBox="0 0 259.3 152.4" enable-background="new 0 0 259.3 152.4" xml:space="preserve">
<g>
	<g>
		<g>
			<g opacity="0.75">
				<rect x="60.7" y="34.8" fill="none" stroke="#B5B4B3" stroke-width="2.5" stroke-miterlimit="10" width="141.8" height="95.3"/>
			</g>
			<g>
				<rect x="58.7" y="32.9" fill="none" stroke="#59C2DB" stroke-width="4" stroke-miterlimit="10" width="141.8" height="95.3"/>
			</g>
			<g opacity="0.75">
				<rect x="67.3" y="41.1" fill="#B5B4B3" width="128.5" height="82.6"/>
			</g>
			<g>
				<rect x="65.4" y="39.2" width="128.5" height="82.6"/>
			</g>
			<path opacity="0.5" fill="#CBCACA" d="M194,147.1c0,2.9-28.8,5.2-64.3,5.2s-64.3-2.3-64.3-5.2s28.8-3.3,64.3-3.3
				S194,144.3,194,147.1z"/>
			<line fill="none" stroke="#59C2DB" stroke-width="4" stroke-miterlimit="10" x1="179.1" y1="128" x2="179.1" y2="146.3"/>
			<line fill="none" stroke="#59C2DB" stroke-width="4" stroke-miterlimit="10" x1="84.4" y1="128" x2="84.4" y2="146.3"/>
		</g>
	</g>
	<g>
		<g>
			<rect x="190" y="69.8" fill="#00E5FF" width="21.1" height="21.1"/>
			<rect x="190" y="69.8" fill="none" stroke="#BDBCBC" stroke-width="4" stroke-miterlimit="10" width="21.1" height="21.1"/>
			<rect x="190" y="69.8" fill="none" stroke="#FFFFFF" stroke-width="3" stroke-miterlimit="10" width="21.1" height="21.1"/>
		</g>
		<g>
			<circle fill="#FFFFFF" cx="200.6" cy="77.3" r="3.1"/>
			<path fill="#FFFFFF" d="M200.6,82c-2.1,0-6.3,1-6.3,3.1v1.6h12.5v-1.6C206.8,83,202.7,82,200.6,82z"/>
		</g>
	</g>
	<g>
		<g>
			<rect x="88.6" y="4.8" fill="#FF1744" width="21.1" height="21.1"/>
			<rect x="88.6" y="4.8" fill="none" stroke="#BDBCBC" stroke-width="4" stroke-miterlimit="10" width="21.1" height="21.1"/>
			<rect x="88.6" y="4.8" fill="none" stroke="#FFFFFF" stroke-width="3" stroke-miterlimit="10" width="21.1" height="21.1"/>
		</g>
		<g>
			<circle fill="#FFFFFF" cx="99.1" cy="12.2" r="3.1"/>
			<path fill="#FFFFFF" d="M99.1,16.9c-2.1,0-6.3,1-6.3,3.1v1.6h12.5V20C105.4,17.9,101.2,16.9,99.1,16.9z"/>
		</g>
	</g>
	<g>
		<g>
			<rect x="28" y="86.7" fill="#7CB342" width="16.8" height="16.8"/>
			<rect x="28" y="86.7" fill="none" stroke="#BDBCBC" stroke-width="3" stroke-miterlimit="10" width="16.8" height="16.8"/>
			<rect x="28" y="86.7" fill="none" stroke="#FFFFFF" stroke-width="2" stroke-miterlimit="10" width="16.8" height="16.8"/>
		</g>
		<g>
			<circle fill="#FFFFFF" cx="36.4" cy="92.6" r="2.5"/>
			<path fill="#FFFFFF" d="M36.4,96.3c-1.7,0-5,0.8-5,2.5v1.2h10v-1.2C41.4,97.2,38,96.3,36.4,96.3z"/>
		</g>
	</g>
	<g>
		<g>
			<rect x="148.8" y="9.7" fill="#00B8D4" width="13.4" height="13.4"/>
			<rect x="148.8" y="9.7" fill="none" stroke="#BDBCBC" stroke-width="3" stroke-miterlimit="10" width="13.4" height="13.4"/>
			<rect x="148.8" y="9.7" fill="none" stroke="#FFFFFF" stroke-width="2" stroke-miterlimit="10" width="13.4" height="13.4"/>
		</g>
		<g>
			<circle fill="#FFFFFF" cx="155.5" cy="14.4" r="2"/>
			<path fill="#FFFFFF" d="M155.5,17.4c-1.3,0-4,0.7-4,2v1h8v-1C159.5,18.1,156.9,17.4,155.5,17.4z"/>
		</g>
	</g>
	<g>
		<g>
			<rect x="215.9" y="95.1" fill="#9C27B0" width="16.8" height="16.8"/>
			<rect x="215.9" y="95.1" fill="none" stroke="#BDBCBC" stroke-width="3" stroke-miterlimit="10" width="16.8" height="16.8"/>
			<rect x="215.9" y="95.1" fill="none" stroke="#FFFFFF" stroke-width="2" stroke-miterlimit="10" width="16.8" height="16.8"/>
		</g>
		<g>
			<circle fill="#FFFFFF" cx="224.3" cy="101" r="2.5"/>
			<path fill="#FFFFFF" d="M224.3,104.7c-1.7,0-5,0.8-5,2.5v1.2h10v-1.2C229.3,105.6,225.9,104.7,224.3,104.7z"/>
		</g>
	</g>
	<g>
		<g>
			<rect x="126.1" y="1.5" fill="#E040FB" width="10.9" height="10.9"/>
			<rect x="126.1" y="1.5" fill="none" stroke="#BDBCBC" stroke-width="3" stroke-miterlimit="10" width="10.9" height="10.9"/>
			<rect x="126.1" y="1.5" fill="none" stroke="#FFFFFF" stroke-width="2" stroke-miterlimit="10" width="10.9" height="10.9"/>
		</g>
		<g>
			<circle fill="#FFFFFF" cx="131.6" cy="5.3" r="1.6"/>
			<path fill="#FFFFFF" d="M131.6,7.8c-1.1,0-3.2,0.5-3.2,1.6v0.8h6.5V9.4C134.8,8.3,132.7,7.8,131.6,7.8z"/>
		</g>
	</g>
	<g>
		<g>
			<rect x="213.8" y="46.8" fill="#0097A7" width="10.9" height="10.9"/>
			<rect x="213.8" y="46.8" fill="none" stroke="#BDBCBC" stroke-width="3" stroke-miterlimit="10" width="10.9" height="10.9"/>
			<rect x="213.8" y="46.8" fill="none" stroke="#FFFFFF" stroke-width="2" stroke-miterlimit="10" width="10.9" height="10.9"/>
		</g>
		<g>
			<circle fill="#FFFFFF" cx="219.3" cy="50.6" r="1.6"/>
			<path fill="#FFFFFF" d="M219.3,53c-1.1,0-3.2,0.5-3.2,1.6v0.8h6.5v-0.8C222.5,53.6,220.3,53,219.3,53z"/>
		</g>
	</g>
	<g>
		<g>
			<rect x="19.3" y="39.2" fill="#FF6E40" width="10.9" height="10.9"/>
			<rect x="19.3" y="39.2" fill="none" stroke="#BDBCBC" stroke-width="3" stroke-miterlimit="10" width="10.9" height="10.9"/>
			<rect x="19.3" y="39.2" fill="none" stroke="#FFFFFF" stroke-width="2" stroke-miterlimit="10" width="10.9" height="10.9"/>
		</g>
		<g>
			<circle fill="#FFFFFF" cx="24.7" cy="43" r="1.6"/>
			<path fill="#FFFFFF" d="M24.7,45.5c-1.1,0-3.2,0.5-3.2,1.6v0.8H28v-0.8C28,46,25.8,45.5,24.7,45.5z"/>
		</g>
	</g>
	<g>
		<g>
			<rect x="28" y="63.9" fill="#2962FF" width="10.9" height="10.9"/>
			<rect x="28" y="63.9" fill="none" stroke="#BDBCBC" stroke-width="3" stroke-miterlimit="10" width="10.9" height="10.9"/>
			<rect x="28" y="63.9" fill="none" stroke="#FFFFFF" stroke-width="2" stroke-miterlimit="10" width="10.9" height="10.9"/>
		</g>
		<g>
			<circle fill="#FFFFFF" cx="33.4" cy="67.7" r="1.6"/>
			<path fill="#FFFFFF" d="M33.4,70.1c-1.1,0-3.2,0.5-3.2,1.6v0.8h6.5v-0.8C36.6,70.7,34.5,70.1,33.4,70.1z"/>
		</g>
	</g>
	<g>
		<g>
			<rect x="232.7" y="65.5" fill="#FF8A80" width="8.7" height="8.7"/>
			<rect x="232.7" y="65.5" fill="none" stroke="#BDBCBC" stroke-width="3" stroke-miterlimit="10" width="8.7" height="8.7"/>
			<rect x="232.7" y="65.5" fill="none" stroke="#FFFFFF" stroke-width="2" stroke-miterlimit="10" width="8.7" height="8.7"/>
		</g>
		<g>
			<circle fill="#FFFFFF" cx="237" cy="68.6" r="1.3"/>
			<path fill="#FFFFFF" d="M237,70.5c-0.9,0-2.6,0.4-2.6,1.3v0.6h5.2v-0.6C239.6,70.9,237.9,70.5,237,70.5z"/>
		</g>
	</g>
	<g>
		<g>
			<rect x="1.5" y="62.4" fill="#EA80FC" width="8.7" height="8.7"/>
			<rect x="1.5" y="62.4" fill="none" stroke="#BDBCBC" stroke-width="3" stroke-miterlimit="10" width="8.7" height="8.7"/>
			<rect x="1.5" y="62.4" fill="none" stroke="#FFFFFF" stroke-width="2" stroke-miterlimit="10" width="8.7" height="8.7"/>
		</g>
		<g>
			<circle fill="#FFFFFF" cx="5.8" cy="65.4" r="1.3"/>
			<path fill="#FFFFFF" d="M5.8,67.4c-0.9,0-2.6,0.4-2.6,1.3v0.6h5.2v-0.6C8.4,67.8,6.7,67.4,5.8,67.4z"/>
		</g>
	</g>
</g>
</svg>
