<svg version="1.1" id="Layer_1" xmlns="http://www.w3.org/2000/svg" x="0" y="0" width="300" height="300" viewBox="-270 445.5 300 300" xml:space="preserve"><style type="text/css">.st0{fill:#f3f0c0}.st1{fill:#ede8be}.st2{fill:#3c3c3b}.st3{fill:#432918}.st4,.st5{fill:none;stroke:#936037;stroke-width:1.604;stroke-linecap:round;stroke-linejoin:round;stroke-miterlimit:10}.st5{stroke-width:1.5318}.st6{fill:#5ac69b}.st7{fill:#fff}.st8{fill:#00bcd4}</style><g id="Layer_1_1_"><path class="st0" d="M-46.2 601h-2.1c-3.3-.1-9.2.5-13.5.7-5.7.3-11.8 6.8-11.8 6.8l10.3 6.6s3.5-3 5.4-3.9c2.3-1 9.9-3.2 11.7-3.7s3.3-1.5 3.3-3.3c0-1.7-1.5-3.2-3.3-3.2z"/><path transform="matrix(-1 -.00677 .00677 -1 -264.515 1165.441)" class="st1" d="M-141 575.3h21.5V591H-141z"/><path class="st2" d="M-170.1 576.8c-5 11.7.6 23.5.6 23.5s12.1-7.8 17.1-19.5.9-22.9.9-22.9-13.7 7.2-18.6 18.9z"/><path class="st0" d="M-160.6 547.6c4.7-1.3 5.7 1.8 5.7 1.8-2.4-17-.8-31.1 16.4-34.1 17.9-3.1 33.6 9.2 35.6 27.2 2.5 22.9-8.3 37.3-24.4 37.6-15.3.3-21.7-5-27.1-16.4 0 0-1.8.5-3.7-.5-2.8-1.4-8.3-13.9-2.5-15.6z"/><path class="st2" d="M-142.1 532.5c6.5 6.8 33.7 10.8 44.4 10.9.1-11.8-4.7-33.7-34.4-34.3-23.6-.5-34.2 19-34.2 28.8-.1 16 5.3 21.5 5.3 21.5s-2.9-10.4.6-11.7c3.2-1.2 5.4 1.8 5.4 1.8s11.5-2.7 12.9-17z"/><ellipse class="st3" cx="-108.7" cy="549.4" rx="1.4" ry="2.6"/><ellipse class="st3" cx="-127.2" cy="549.3" rx="1.4" ry="2.6"/><path class="st4" d="M-116.3 545.9s-1.6 6.9 4.1 12.4l-6 1.1"/><path class="st5" d="M-128.8 564.3c-1.1 2.4-.1 5.2 2.3 6.3s5.2.1 6.3-2.3l-8.6-4z"/><path class="st6" d="M-62.1 614.4l-11.1-6.6-18.5 15.7s-4.9-30.3-12.2-35.2c-7.3-5-12.6-4.9-12.6-4.9-10.8 7.9-29 0-29 0s-8.6-1.5-17.7 3.2c-12.3 6.4-42.2 31.7-36 44.9 7.1 14.9 30.1 20 30.1 20l-5.3 29.8h73.7l-2.3-29.2c8.8.2 40.9-37.7 40.9-37.7zm-103.8 25l-15.4-11.4 20.3-12.9-4.9 24.3z"/><path class="st7" d="M-100.7 682c-.4 0-.7-.3-.7-.7l-6.1-64.7c0-.4.3-.8.7-.8s.8.3.8.7l6.1 64.7c0 .4-.3.7-.8.8.1 0 .1 0 0 0zM-141.9 597.3c-2.7 0-5.4-.7-8-2.2-7.1-3.9-7.3-9.7-7.3-9.9 0-.4.3-.8.7-.8s.8.3.8.7c0 .2.2 5.1 6.6 8.6 3.6 2 7.5 2.5 10.9 1.5 3.3-1 6-3.4 7.9-6.8.2-.4.6-.5 1-.3s.5.6.3 1c-2 3.8-5.1 6.5-8.8 7.6-1.3.4-2.7.6-4.1.6zM-117.2 597.3c-.9 0-1.8-.1-2.6-.4-3.3-1-6-3.7-7.7-7.9-.2-.4 0-.8.4-1s.8 0 1 .4c1.6 3.7 3.9 6.2 6.8 7 2.5.7 5.3.2 7.9-1.6 2.1-1.5 3.5-4.3 4.1-6.3.1-.4.5-.6.9-.5s.6.5.5.9c-.6 2.3-2.2 5.4-4.7 7.1-2.2 1.5-4.4 2.3-6.6 2.3z"/><path class="st0" d="M-154.3 643.8c-.4-.1-11.6-4.4-11.6-4.4s-2.5 7-3.1 12c-1.1.2 9.3 4.3 14.7 3.5 3-.5 5.6-2.5 5.6-5.6-.1-3-1.2-4-5.6-5.5z"/><path class="st8" d="M-55.3 542.2c-3.9 0-6.5 1.6-8.8 4.6l-4.9-5.5c2.6-4.1 7.7-7.3 14.1-7.3 9.5 0 15 5.7 15 12.6 0 14-14.4 13.6-12.9 22.6l-7.5.1c-2.1-12.6 11.6-11.5 11.6-20.9.1-3.4-2.8-6.2-6.6-6.2zm-.9 31.9c3.1 0 5.3 2.8 5.3 5.3 0 2.9-2.1 5.7-5.3 5.7-3.5 0-5.6-2.8-5.6-5.7 0-2.5 2.1-5.3 5.6-5.3z"/></g></svg>