<svg version="1.1" id="Layer_1" xmlns="http://www.w3.org/2000/svg" x="0" y="0" width="900" height="300" viewBox="29 445.5 900 300" xml:space="preserve"><style type="text/css">.st0{fill:#00acc1}.st1{fill:#00838f}.st2{fill:#f3f0c0}.st3{fill:#ede8be}.st4{fill:#3c3c3b}.st5{fill:#432918}.st6{fill:#936037}.st7{fill:#5ac69b}.st8{fill:none;stroke:#ededed;stroke-width:1.9816;stroke-linecap:round;stroke-miterlimit:10}.st9{fill:#fff}.st10{fill:#fdeae5}.st11{fill:#683c11}.st12{fill:#00bcd4}.st13{fill:#b18a7f}.st14{fill:#1d1d1b}.st15{fill:#f70}.st16{fill:#1db8d1}</style><g id="Layer_1_1_"><path class="st0" d="M807.1 564.4h-57.2c-.4 0-.8-.3-.8-.8s.3-.8.8-.8h57.2c.4 0 .8.3.8.8s-.4.8-.8.8zM807.1 571.9h-57.2c-.4 0-.8-.3-.8-.8s.3-.8.8-.8h57.2c.4 0 .8.3.8.8s-.4.8-.8.8zM785.8 579.6h-35.9c-.4 0-.8-.3-.8-.8s.3-.8.8-.8h35.9c.4 0 .8.3.8.8s-.4.8-.8.8z"/><path class="st0" d="M803.9 593.8h-52.5c-8.3 0-15-6.7-15-15v-14.3c0-8.3 6.7-15 15-15 .4 0 .8.3.8.8s-.3.8-.8.8c-7.5 0-13.5 6.1-13.5 13.5v14.3c0 7.5 6.1 13.5 13.5 13.5h52.5c7.5 0 13.5-6.1 13.5-13.5v-14.3c0-7.5-6.1-13.5-13.5-13.5h-45.2c-.4 0-.8-.3-.8-.8s.3-.8.8-.8h45.2c8.3 0 15 6.7 15 15v14.3c0 8.3-6.8 15-15 15zM731 511.3h-57.2c-.4 0-.8-.3-.8-.8s.3-.8.8-.8H731c.4 0 .8.3.8.8s-.4.8-.8.8zM731 518.9h-57.2c-.4 0-.8-.3-.8-.8s.3-.8.8-.8H731c.4 0 .8.3.8.8s-.4.8-.8.8zM709.6 526.6h-35.9c-.4 0-.8-.3-.8-.8 0-.4.3-.8.8-.8h35.9c.4 0 .8.3.8.8 0 .4-.4.8-.8.8z"/><path class="st0" d="M727.7 540.8h-52.5c-8.3 0-15-6.7-15-15v-14.3c0-8.3 6.7-15 15-15 .4 0 .8.3.8.8s-.3.8-.8.8c-7.5 0-13.5 6.1-13.5 13.5v14.3c0 7.5 6.1 13.5 13.5 13.5h52.5c7.5 0 13.5-6.1 13.5-13.5v-14.3c0-7.5-6.1-13.5-13.5-13.5h-45.2c-.4 0-.8-.3-.8-.8s.3-.8.8-.8h45.2c8.3 0 15 6.7 15 15v14.3c.1 8.2-6.7 15-15 15zM821.5 640.5c-21.2 0-38.5-17.3-38.5-38.5 0-.4.3-.8.8-.8s.8.3.8.8c0 20.4 16.6 37 37 37 .4 0 .8.3.8.8s-.5.7-.9.7zM655.3 592.4c-.3 0-.5-.2-.7-.4-.2-.4 0-.8.3-1 15.7-7.7 25.4-23.4 25.4-40.9 0-.4.3-.8.8-.8s.8.3.8.8c0 18.1-10.1 34.2-26.3 42.2 0 .1-.2.1-.3.1z"/><path class="st1" d="M613.7 691.5c-2.5 25.8-2.2 33.6-2.2 33.6H555.1c-3.3-29.2-1.2-36.5-1.2-36.5s57.6 2.8 59.8 2.9z"/><path class="st0" d="M330.6 569.8c-.4 0-.8-.3-.8-.8v-89.2c0-8.3 6.7-15 15-15h351.6c8.3 0 15 6.7 15 15v5.3c0 .4-.3.8-.8.8s-.8-.3-.8-.8v-5.3c0-7.5-6.1-13.5-13.5-13.5H344.9c-7.5 0-13.5 6.1-13.5 13.5v89.3c0 .4-.3.7-.8.7zM516.2 657.1H359c-.4 0-.8-.3-.8-.8s.3-.8.8-.8h157.1c.4 0 .8.3.8.8s-.3.8-.7.8zM696.5 657.1H642c-.4 0-.8-.3-.8-.8s.3-.8.8-.8h54.5c7.5 0 13.5-6.1 13.5-13.5v-88.5c0-.4.3-.8.8-.8s.8.3.8.8v88.6c0 8.3-6.8 15-15.1 15z"/><path class="st0" d="M342.6 569.8c-.4 0-.8-.3-.8-.8v-89.2c0-1.7 1.4-3.1 3.1-3.1h351.6c1.7 0 3.1 1.4 3.1 3.1v5.3c0 .4-.3.8-.8.8s-.8-.3-.8-.8v-5.3c0-.9-.8-1.6-1.6-1.6H344.9c-.9 0-1.6.8-1.6 1.6v89.3c0 .4-.3.7-.7.7zM507 645.2H359c-.4 0-.8-.3-.8-.8s.3-.8.8-.8h148c.4 0 .8.3.8.8s-.4.8-.8.8zM696.5 645.2h-41.2c-.4 0-.8-.3-.8-.8s.3-.8.8-.8h41.2c.9 0 1.6-.8 1.6-1.6v-88.5c0-.4.3-.8.8-.8s.8.3.8.8v88.6c0 1.7-1.5 3.1-3.2 3.1z"/><path class="st2" d="M668 617.9h-2c-3.1-.1-8.7.5-12.8.6-5.4.2-11.2 6.4-11.2 6.4l9.7 6.3s3.3-2.8 5.1-3.6c2.2-.9 9.4-3 11.1-3.5s3.1-1.4 3.1-3.1c.1-1.7-1.3-3.1-3-3.1z"/><path transform="matrix(-1 -.00677 .00677 -1 1172.484 1205.994)" class="st3" d="M578.1 593.6h20.4v14.8h-20.4z"/><path class="st0" d="M608.4 516.8h-57.2c-.4 0-.8-.3-.8-.8s.3-.8.8-.8h57.2c.4 0 .8.3.8.8s-.3.8-.8.8zM608.4 524.3h-57.2c-.4 0-.8-.3-.8-.8s.3-.8.8-.8h57.2c.4 0 .8.3.8.8s-.3.8-.8.8zM561.1 532h-9.9c-.4 0-.8-.3-.8-.8s.3-.8.8-.8h9.9c.4 0 .8.3.8.8s-.4.8-.8.8zM314.2 499.3h-21.3c-.4 0-.8-.3-.8-.8s.3-.8.8-.8h21.3c.4 0 .8.3.8.8s-.3.8-.8.8zM270.7 492.1h-57.2c-.4 0-.8-.3-.8-.8s.3-.8.8-.8h57.2c.4 0 .8.3.8.8s-.4.8-.8.8zM270.7 499.7h-57.2c-.4 0-.8-.3-.8-.8s.3-.8.8-.8h57.2c.4 0 .8.3.8.8s-.4.8-.8.8zM249.4 507.4h-35.9c-.4 0-.8-.3-.8-.8s.3-.8.8-.8h35.9c.4 0 .8.3.8.8s-.4.8-.8.8zM470.1 517.1h-57.2c-.4 0-.8-.3-.8-.8s.3-.8.8-.8h57.2c.4 0 .8.3.8.8s-.3.8-.8.8zM470.1 524.7h-57.2c-.4 0-.8-.3-.8-.8s.3-.8.8-.8h57.2c.4 0 .8.3.8.8s-.3.8-.8.8zM448.8 532.4h-35.9c-.4 0-.8-.3-.8-.8s.3-.8.8-.8h35.9c.4 0 .8.3.8.8s-.4.8-.8.8zM523.7 588.3h-57.2c-.4 0-.8-.3-.8-.8s.3-.8.8-.8h57.2c.4 0 .8.3.8.8s-.3.8-.8.8zM523.7 595.8h-57.2c-.4 0-.8-.3-.8-.8s.3-.8.8-.8h57.2c.4 0 .8.3.8.8s-.3.8-.8.8zM502.4 603.5h-35.9c-.4 0-.8-.3-.8-.8s.3-.8.8-.8h35.9c.4 0 .8.3.8.8s-.4.8-.8.8z"/><path class="st0" d="M267.4 521.6h-52.5c-8.3 0-15-6.7-15-15v-14.3c0-8.3 6.7-15 15-15 .4 0 .8.3.8.8s-.3.8-.8.8c-7.5 0-13.5 6.1-13.5 13.5v14.3c0 7.5 6.1 13.5 13.5 13.5h52.5c7.5 0 13.5-6.1 13.5-13.5v-14.4c0-7.5-6.1-13.5-13.5-13.5h-45.2c-.4 0-.8-.3-.8-.8s.3-.8.8-.8h45.2c8.3 0 15 6.7 15 15v14.3c.1 8.4-6.7 15.1-15 15.1zM441.6 608.9c-7.9 0-14.3-6.4-14.3-14.3s6.4-14.3 14.3-14.3 14.3 6.4 14.3 14.3-6.4 14.3-14.3 14.3zm0-27c-7.1 0-12.8 5.7-12.8 12.8s5.7 12.8 12.8 12.8 12.8-5.7 12.8-12.8-5.8-12.8-12.8-12.8z"/><path class="st0" d="M441.6 597.1c-3.1 0-5.6-2.5-5.6-5.6s2.5-5.6 5.6-5.6 5.6 2.5 5.6 5.6-2.5 5.6-5.6 5.6zm0-9.6c-2.2 0-4.1 1.8-4.1 4.1s1.8 4.1 4.1 4.1 4.1-1.8 4.1-4.1-1.9-4.1-4.1-4.1zM451.2 604.4c-.4 0-.8-.3-.8-.8 0-2.5-5.8-4.1-8.9-4.1s-8.9 1.6-8.9 4.1c0 .4-.3.8-.8.8s-.8-.3-.8-.8c0-3.9 6.9-5.6 10.4-5.6s10.4 1.7 10.4 5.6c.2.4-.2.8-.6.8zM390.6 538.3c-7.9 0-14.3-6.4-14.3-14.3s6.4-14.3 14.3-14.3 14.3 6.4 14.3 14.3-6.5 14.3-14.3 14.3zm0-27.1c-7.1 0-12.8 5.7-12.8 12.8s5.7 12.8 12.8 12.8 12.8-5.7 12.8-12.8c-.1-7-5.8-12.8-12.8-12.8z"/><path class="st0" d="M390.6 526.5c-3.1 0-5.6-2.5-5.6-5.6s2.5-5.6 5.6-5.6 5.6 2.5 5.6 5.6-2.6 5.6-5.6 5.6zm0-9.6c-2.2 0-4.1 1.8-4.1 4.1s1.8 4.1 4.1 4.1 4.1-1.8 4.1-4.1-1.9-4.1-4.1-4.1zM400.2 533.7c-.4 0-.8-.3-.8-.8 0-2.5-5.8-4.1-8.9-4.1s-8.9 1.6-8.9 4.1c0 .4-.3.8-.8.8s-.8-.3-.8-.8c0-3.9 6.9-5.6 10.4-5.6s10.4 1.7 10.4 5.6c.1.5-.2.8-.6.8zM527.7 538.3c-7.9 0-14.3-6.4-14.3-14.3s6.4-14.3 14.3-14.3 14.2 6.4 14.2 14.3-6.4 14.3-14.2 14.3zm0-27.1c-7.1 0-12.8 5.7-12.8 12.8s5.7 12.8 12.8 12.8 12.8-5.7 12.8-12.8c-.1-7-5.8-12.8-12.8-12.8z"/><path class="st0" d="M527.7 526.5c-3.1 0-5.6-2.5-5.6-5.6s2.5-5.6 5.6-5.6 5.6 2.5 5.6 5.6-2.6 5.6-5.6 5.6zm0-9.6c-2.2 0-4.1 1.8-4.1 4.1s1.8 4.1 4.1 4.1 4.1-1.8 4.1-4.1-1.9-4.1-4.1-4.1zM537.3 533.7c-.4 0-.8-.3-.8-.8 0-2.5-5.8-4.1-8.9-4.1s-8.9 1.6-8.9 4.1c0 .4-.3.8-.8.8s-.8-.3-.8-.8c0-3.9 6.9-5.6 10.4-5.6s10.4 1.7 10.4 5.6c.1.5-.2.8-.6.8z"/><path class="st4" d="M550.7 595c-4.7 11.1.6 22.3.6 22.3s11.5-7.4 16.2-18.4c4.7-11.1.8-21.6.8-21.6s-12.9 6.6-17.6 17.7z"/><path class="st2" d="M559.7 567.3c4.4-1.2 5.4 1.7 5.4 1.7-2.2-16.1-.7-29.5 15.5-32.3 16.9-2.9 31.8 8.7 33.6 25.8 2.4 21.7-7.9 35.3-23.1 35.6-14.5.3-20.6-4.7-25.7-15.5 0 0-1.7.5-3.5-.5-2.5-1.4-7.7-13.2-2.2-14.8z"/><path class="st4" d="M577.2 553c6.2 6.4 31.9 10.2 42.1 10.3.1-11.2-4.5-31.9-32.5-32.5-22.3-.5-32.3 18-32.4 27.3-.1 15.1 5 20.3 5 20.3s-2.8-9.8.6-11.1c3.1-1.1 5.1 1.7 5.1 1.7s10.8-2.5 12.1-16z"/><ellipse transform="matrix(.0636 -.998 .998 .0636 2.11 1140.475)" class="st5" cx="608.8" cy="569.1" rx="2.4" ry="1.3"/><ellipse transform="rotate(-81.547 591.379 568.994)" class="st5" cx="591.4" cy="569" rx="2.4" ry="1.3"/><path class="st6" d="M599.4 579.2c-.4 0-.7-.3-.8-.7s.2-.9.7-.9l4.2-.7c-4.5-5.2-3.8-11.3-3.8-11.6.1-.4.5-.8.9-.7.4 0 .8.4.7.9 0 .1-.7 6.5 4.4 11.3.2.2.3.5.2.8s-.3.5-.6.6l-5.7 1h-.2zM593.8 590.2c-.7 0-1.5-.2-2.2-.5-1.3-.6-2.3-1.6-2.7-3-.5-1.3-.4-2.8.2-4 .2-.4.7-.6 1.1-.4l8.1 3.8c.2.1.3.3.4.5.1.2.1.4 0 .6-1 1.9-2.9 3-4.9 3zm-3.6-6c-.1.7-.1 1.4.1 2 .3.9 1 1.7 1.9 2.1 1.6.7 3.4.2 4.5-1.1l-6.5-3z"/><path class="st7" d="M652.9 630.5l-10.5-6.2-17.6 14.8s-4.6-28.7-11.6-33.4c-6.9-4.7-11.9-4.6-11.9-4.6-10.2 7.5-27.4 0-27.4 0s-8.1-1.4-16.7 3c-11.7 6-40.6 30.3-34 42.5 6.6 12.1 28.5 18.9 28.5 18.9l-4.4 25.4c25.1 8.4 69.2 2.7 69.2 2.7l-2.1-27.5c8.1.3 38.5-35.6 38.5-35.6zm-98.3 23.7L540 643.5l17.2-12.2-2.6 22.9z"/><path class="st8" d="M616.4 693.6l-3.8-61.1M563.6 602.9s.1 5.2 6.6 8.8c6.7 3.7 14.7 2.3 18.8-5.4M610.7 605.3c-.5 1.8-1.8 4.8-4.1 6.4-5.3 3.7-11.7 2.3-14.9-5.4"/><path class="st2" d="M565.6 658.3c-.3-.1-11-4.1-11-4.1s-2.4 6.6-3 11.4c-1.1.2 8.8 4.1 13.9 3.3 2.9-.4 5.3-2.4 5.3-5.3.1-2.9-1-3.8-5.2-5.3z"/><path class="st9" d="M193 654.4l-14.2 31.9c-.4.9-1.4 1.3-2.3.9l-2.1-.9 15.6-35.1 2.1.9c.9.4 1.3 1.4.9 2.3z"/><path class="st10" d="M291.4 671.6s-4.1-2.9-6.6-4.3c-2.4-1.4-6.3 7.1-3.8 9 2.6 1.8 4.3 3.4 4.3 3.4l6.1-8.1zM302.4 602.9c-.5 4.7 1.7 11.7 1.7 11.7l-2.4 9.2 4.9.7s-.9 14.5 13.8 17.6c20.9 4.4 38.1-12.7 35.5-31.1-2.2-15.7-12.3-29-29.6-28.8-17.4 0-23.4 16-23.9 20.7z"/><path class="st11" d="M320.5 598.9s-6 12.7-20.3 14.2c0 0-3.6-18.5 10.1-24.7 13.6-6.2 26.4-2.6 26.4-2.6l14.7 10.9s6.6 8.5 6.8 14c.2 5.4-.1 15.6-9.1 23.6 0 0-5.2-.9-8.5-3.9-2.5-2.3-4.2-6.7-4.2-6.7 1.6.5 3.9 1 5.6-1.5 1.8-2.8 1.2-11.7-3.4-11.6-3.5.1-4.9 4.6-4.9 4.6s-4.9-15.2-13.2-16.3z"/><path class="st1" d="M299.6 601s70 10.9 72 11.2c2.1.3 2.8-2 .2-3.2s-12.5-3.8-12.5-3.8c-1.7-6.5-10.1-23.6-29-25.4-26.7-2.7-30.7 21.2-30.7 21.2z"/><ellipse class="st5" cx="314.6" cy="615.2" rx="1.1" ry="2.2"/><path class="st11" d="M315.9 632.2c-.9 0-2-.5-3.2-1.4-.2-.1-.3-.3-.3-.5s.1-.4.2-.5l5.8-4.8c.2-.2.5-.2.7-.1s.4.4.4.6c0 .5-.1 5.3-2.5 6.5-.3.1-.6.2-1.1.2zm-1.6-2c.7.5 1.6.8 2.2.5 1-.5 1.4-2.3 1.6-3.7l-3.8 3.2z"/><path class="st10" d="M336.7 640.1l1.2 8.7-13.5 1.2-1.5-10.8z"/><path class="st12" d="M342.4 647.3c-1.6-.7-3.5-2.3-4.9-1.4-4.9 3.3-9.4 4.2-13.4 3.5-2-.3-3.3 2.3-4.2 3.8-3.5 6.3-1.9 23.9-2.1 31-.3 8.8-3.6 42.1-3.6 42.1h37.7c3.7.5 4.6-49.5 3.5-57.4-1.2-7.8-4.1-17.5-13-21.6z"/><path class="st9" d="M177.1 688.2h-44.7c-1.1 0-1.9-.9-1.9-1.9v-2.2h48.6v2.1c-.1 1.1-.9 2-2 2z"/><path class="st13" d="M145.7 676.9c5.1.3 8 1.3 9.5 2.8 2.1 2.1 0 4.2 0 4.2-3 2.4-5.2 1.1-10.5 1.4-5.2.3-9.6 2.2-9.6 2.2l-.9-9.8c0-.1 6.4-1.1 11.5-.8zM114.6 593.5c1.2 4.6 0 11.8 0 11.8l3.6 8.8-4.7 1.4s2.9 14.2-11.2 19.3c-20.1 7.3-39.5-7.2-39.5-25.8 0-15.8 8.1-30.4 25.3-32.7s25.3 12.7 26.5 17.2z"/><path class="st14" d="M98.5 595.8s6.9 10 21.3 10.8c0 0 5.1-27.8-23.1-30.6-31.8-3.2-34.8 25.7-34.8 31.1.1 5.4.9 15.6 10.3 23.1 0 0 5.1-1.2 8.3-4.3 2.4-2.4 3.9-7 3.9-7-1.5.6-3.8 1.2-5.7-1.2-2-2.7-1.8-11.6 2.8-11.7 3.5-.1 5.1 4.3 5.1 4.3s3.6-12.9 11.9-14.5z"/><ellipse transform="rotate(-82.415 104.17 609.3)" class="st5" cx="104.2" cy="609.3" rx="2.2" ry="1.1"/><path class="st11" d="M107.1 627.3c-.1 0-.1 0 0 0-1.9-.1-3.4-.8-4.3-1.9-1.5-1.9-1-4.5-1-4.6.1-.4.4-.6.8-.5s.6.4.5.8c0 0-.4 2.1.8 3.5.7.8 1.7 1.3 3.2 1.4.4 0 .7.3.6.7 0 .3-.3.6-.6.6z"/><path class="st13" d="M84.6 635.4l-.8 8.8 13.6.5 1-10.9z"/><path class="st15" d="M82.2 643c8.2-5.3 25.3.4 25.3.4s1.5 15.9 4.4 29.8c4.5 21.2 3.9 52.2 3.9 52.2h-41c-3.4-10.6.8-46.9.1-58.7-.5-7.9-.9-18.4 7.3-23.7z"/><path class="st15" d="M71 645.6c-7.2 6.3-9.6 13.7-7.4 17.9 2.3 4.2 6.3 6.3 11.3 3.2 5-3.2 22.8-26.1 32.6-23.3 0 0-8.8-4.5-13.7-4.5-4.8-.1-15.6.4-22.8 6.7z"/><path class="st9" d="M71 669.5h-.6c-3.3-.3-6.3-2.6-7.5-5.7-1.9-5-.2-12.7 7.6-18.8 11.4-8.8 27-7.9 33.9-4.6 2.4 1.2 3.7 2.6 3.7 4 0 .7-.2 1.2-.5 1.6-.7.7-1.9.7-3.6.6-5.2-.2-15.9-.5-28.4 20.4-1 1.7-2.6 2.5-4.6 2.5zm21.1-29.9c-6.6 0-14.3 1.8-20.6 6.6-7.2 5.5-8.8 12.7-7.1 17.1 1.1 2.8 3.9 4.5 6.2 4.7 1 .1 2.8 0 3.8-1.7 13-21.7 24.3-21.3 29.7-21.1 1.1 0 2.2.1 2.5-.2.1-.1.1-.3.1-.5 0-.9-1.1-1.9-2.9-2.7-2.8-1.3-7-2.2-11.7-2.2zm-21.1 6z"/><path class="st9" d="M108.5 675.4c-.4 0-.7-.3-.7-.6l-5.1-30.6c-.1-.4.2-.8.6-.9s.8.2.9.6l5.1 30.6c.1.4-.2.8-.6.9-.1-.1-.1 0-.2 0z"/><path class="st15" d="M87.1 664.8c.7 7.9 2 18.4 3.1 25 1.1 6.2 8.6 6.2 8.6 6.2l36.2-8.6-.9-9.8-29.7 2.8s1.2-10.2 1.1-15.6"/><path class="st9" d="M99.3 696.7c-4.5 0-8.2-3.2-10.1-9-2.4-7.3-3.6-16.5-4.1-22.8 0-.4.3-.8.7-.8s.8.3.8.7c.5 6.3 1.7 15.3 4.1 22.5 1.9 5.9 5.7 8.7 10.3 7.8 2.7-.5 29-7.1 33.4-8.2l-.7-8.5-29.7 2.8-.1-.7c-.1-.6-2.3-14.6-2.5-20 0-.4.3-.8.7-.8s.8.3.8.7c.1 4.7 1.9 16.2 2.3 19.1l29.8-2.8 1 11.2-.6.2c-1.3.3-31.1 7.8-34.1 8.3-.8.2-1.4.3-2 .3z"/><ellipse transform="rotate(-49.05 60.192 583.625)" class="st14" cx="60.2" cy="583.6" rx="12.5" ry="9.8"/><path class="st12" d="M317.9 662.6l-9.1 19.2-18.8-11.2-4.6 8.9 20.5 16.2s6.6 5 12.2-.1c3.5-3.1 12.3-17.8 12.3-17.8l-12.5-15.2z"/><path class="st10" d="M303.7 707.2s-3.1.6-5.8 1.4c-8.8 2.7-7 8.8-3.7 8.7 2.4 0 10.3-.1 10.3-.1l-.8-10z"/><path class="st12" d="M348.9 673.7s-2 27.1-2.8 31.2-3 7.7-11.9 9.1c-10.4 1.6-29.2 3.2-29.2 3.2l-.7-10.1 27.5-7.6v-25.7"/><path class="st9" d="M304.2 718l-.6-11.5 27.7-7.9-1.4-25.5c0-.4.3-.8.7-.8s.8.3.8.7l1.5 26.7-27.7 7.9.5 8.8c3.6-.2 19.7-1.4 29.4-3.3 8.5-1.7 10.2-5.9 10.8-9.7.6-4 1-34.3 1-34.6 0-.4.3-.7.8-.7.4 0 .7.3.7.8 0 1.3-.4 30.7-1 34.8s-2.5 9-12 11c-11 2.2-30.2 3.4-30.4 3.4l-.8-.1z"/><path class="st11" d="M306.8 589.8c2.3-1.7 3.8 8.1 3.3 10.7l-8.3-1.3c-.1 0 2.6-7.6 5-9.4z"/><path class="st9" d="M359 607.7c-.4 0-.7-.3-.7-.6-.6-4.5-2.8-9.4-6.1-13.8-1.5-2-15.1-19.1-37.4-10.8-.4.1-.8-.1-1-.4-.1-.4.1-.8.4-1 23.3-8.7 37.6 9.2 39.1 11.3 3.4 4.6 5.7 9.7 6.4 14.5.1.4-.2.8-.7.8.1 0 .1 0 0 0zM301.6 599.6h-.2c-.4-.1-.7-.5-.6-.9.9-4 4.1-10 7-9.7.4 0 .7.4.7.8s-.4.7-.8.7c-1.6-.1-4.5 4.5-5.3 8.5-.2.4-.5.6-.8.6z"/><path class="st0" d="M248.9 578.4h-57.2c-.4 0-.8-.3-.8-.8s.3-.8.8-.8h57.2c.4 0 .8.3.8.8s-.4.8-.8.8zM248.9 586h-57.2c-.4 0-.8-.3-.8-.8s.3-.8.8-.8h57.2c.4 0 .8.3.8.8s-.4.8-.8.8zM227.5 593.7h-35.9c-.4 0-.8-.3-.8-.8s.3-.8.8-.8h35.9c.4 0 .8.3.8.8s-.4.8-.8.8z"/><path class="st0" d="M245.6 607.9h-52.5c-8.3 0-15-6.7-15-15v-14.3c0-8.3 6.7-15 15-15 .4 0 .8.3.8.8s-.3.8-.8.8c-7.5 0-13.5 6.1-13.5 13.5V593c0 7.5 6.1 13.5 13.5 13.5h52.5c7.5 0 13.5-6.1 13.5-13.5v-14.3c0-7.5-6.1-13.5-13.5-13.5h-45.2c-.4 0-.8-.3-.8-.8s.3-.8.8-.8h45.2c8.3 0 15 6.7 15 15v14.3c.1 8.3-6.7 15-15 15zM265.5 665c-25.9 0-47-21.1-47-47 0-.4.3-.8.8-.8s.8.3.8.8c0 25.1 20.4 45.5 45.5 45.5.4 0 .8.3.8.8s-.5.7-.9.7z"/><path class="st9" d="M317 699.3c-.5 0-.8-.4-.7-.8 0-.1.5-5.6.8-14.3.1-1.8 0-4.3 0-7.1-.2-8.6-.4-19.3 2.3-24.2l.1-.2c.9-1.6 2.4-4.3 4.8-3.9 4.2.7 8.5-.5 12.9-3.4.3-.2.8-.1 1 .2s.1.8-.2 1c-4.7 3.2-9.4 4.4-14 3.7-1.4-.2-2.5 1.8-3.3 3.2l-.1.2c-2.5 4.5-2.2 15.4-2.1 23.4.1 2.9.1 5.4 0 7.2-.3 8.8-.8 14.3-.8 14.4 0 .3-.3.6-.7.6zM291.2 646.3l-11.7 39.8c-.3.9-1.2 1.5-2.2 1.2l-1.4-.3 12.7-43.2 1.4.3c1 .3 1.5 1.3 1.2 2.2z"/><path class="st16" d="M141 688.3v9.9h12.9v28h6.7v-28H271v28h6.7v-28h14.5v-9.9z"/><path class="st9" d="M777.4 688.5h44.7c1.1 0 1.9-.9 1.9-1.9v-2.1h-48.6v2.1c.1 1.1.9 1.9 2 1.9z"/><path class="st9" d="M761.5 654.7l14.2 31.9c.4.9 1.4 1.3 2.3.9l2.1-.9-15.6-35.1-2.1.9c-.9.4-1.3 1.5-.9 2.3z"/><path class="st16" d="M706.8 688.3v9.9h13v28h6.6v-28h74.4v28h6.7v-28H822v-9.9z"/><path class="st0" d="M142.2 566.6c-.4 0-.8-.3-.8-.8v-14.1c0-.4.3-.8.8-.8s.8.3.8.8v14.1c0 .5-.4.8-.8.8zM142.2 607.2c-.4 0-.8-.3-.8-.8v-34.1c0-.4.3-.8.8-.8s.8.3.8.8v34.1c0 .5-.4.8-.8.8zM142.3 544.6c-.4 0-.8-.3-.8-.8 0-25.9 21.1-47 47-47 .4 0 .8.3.8.8s-.3.8-.8.8c-25.1 0-45.5 20.4-45.5 45.5.1.4-.3.7-.7.7z"/><path class="st8" d="M589.9 712.6l-.6 12.5"/><path class="st10" d="M808.9 665.2c.2-.1 1.2-.3 1.5-.4 2.4-.7 6.8-1.4 9.9-2 4.2-.9 9.8 2.7 9.8 2.7l-6.2 6.7s-3.1-1.5-4.7-1.8c-1.9-.3-7.8-.4-9.2-.5s-2.6-.4-3-1.7c-.2-1.3.6-2.6 1.9-3zM832.5 699.2c.4 0 9.8-.7 9.8-.7l.7 9.3s-9.4.7-9.8.7c-2.6.2-4.8-1.7-5-4.3s1.7-4.9 4.3-5zM882.2 637.7v9.6l-18.6-.8v-11.8z"/><path class="st10" d="M850.6 594.9c-1.5 4.6-.8 13.4-.8 13.4l-3.5 9.6 3.4 1.6s-3.1 12.4 9.6 17.9c19.9 8.7 40.5-4.8 41.7-23.7 1-16-6.3-31.3-23.6-34.7-17.3-3.4-25.4 11.4-26.8 15.9z"/><ellipse transform="rotate(-5.622 856.663 610.321) scale(1.00001)" class="st5" cx="856.7" cy="610.3" rx="1" ry="2"/><path class="st12" d="M883 643.8h-18.2c-1.3 0-3.1.6-3.1 3v4s-6.9 10.6-9.2 23.4c-2.2 13-2.7 50.5-2.7 50.5h42.8s-1.4-29.6-1.4-46.8c0-17.4-5.6-25.6-6.1-27.1s0-2.6 0-4.4-1.7-2.6-2.1-2.6z"/><path class="st9" d="M861.7 651.5c-.4 0-.8-.3-.8-.8v-4c0-2.7 2.1-3.7 3.9-3.7H883c.4 0 .8.3.8.8s-.3.8-.8.8h-18.2c-.7 0-2.4.2-2.4 2.2v4c0 .4-.3.7-.7.7z"/><path class="st12" d="M856.7 660.9s-5.9 14.2-7.4 19.4c-6.4-6.2-21.1-17-21.1-17l-6.5 8.6s22.4 25.8 28 25.8 18.7-24.1 18.7-24.1l-11.7-12.7z"/><path class="st12" d="M882.3 668.5s-.2 24.8-.7 28.9-2.2 9.8-11.2 9.9c-10.1.1-29.2 1.8-29.2 1.8l-1.5-10 27.1-6.1-1.7-23.3"/><path class="st9" d="M840.5 709.2l-1.5-11.4 27.2-6.1-2.9-22.5c-.1-.4.2-.8.6-.8.4-.1.8.2.8.6l3.1 23.8-27.2 6.1 1.1 8.7c3.7-.3 20.6-1.4 29.5-2 8.3-.5 9.7-5.5 10-9.8.3-4.1.1-23.6.1-23.8 0-.4.3-.8.7-.8.4 0 .7.3.8.7 0 .8.2 19.8-.1 24-.3 4.5-1.9 10.6-11.4 11.2-10 .6-30 2-30.2 2.1h-.6z"/><path class="st9" d="M850.8 694.2c-.5 0-.8-.4-.8-.8.5-9 1.1-15.5 1.7-19.4 2.2-12.8 9.2-23.6 9.3-23.7.2-.3.7-.4 1-.2s.4.7.2 1c-.1.1-6.9 10.7-9 23.1-.7 3.9-1.2 10.3-1.7 19.2 0 .5-.3.8-.7.8z"/><path class="st15" d="M877.7 575.2c12.1 0 25.3 8.6 29.5 24.6 6.1 22.9-6.3 39-6.3 39s-21.2 2.1-24.2-1c-3-3.2-3.4-14.5-3.4-14.5s2.3.5 4.7-1.7c2.6-2.3 4.9-10.2.2-11.3-2.2-.5-3.7.4-4.3 2-.2.4-2.2 7.5-7.5 8.6 4.1-4.1 5-17.1 3.6-21.2-3.5 2.3-16.7 5.5-23.8 3.1 0 0-.5-27.6 31.5-27.6z"/><path class="st6" d="M856 627.9c-.5 0-1-.1-1.6-.4-.3-.1-.5-.5-.3-.9.1-.3.5-.5.9-.3.8.3 1.4.3 1.8 0 1.1-.8 1.3-3.4 1.3-4.3 0-.4.3-.7.6-.7s.7.3.7.6c0 .4.1 4.1-1.8 5.4-.5.5-1 .6-1.6.6z"/></g></svg>