<?xml version="1.0" encoding="utf-8"?>
<!-- Generator: Adobe Illustrator 18.1.1, SVG Export Plug-In . SVG Version: 6.00 Build 0)  -->
<!DOCTYPE svg PUBLIC "-//W3C//DTD SVG 1.1//EN" "http://www.w3.org/Graphics/SVG/1.1/DTD/svg11.dtd">
<svg version="1.1" id="Layer_1" xmlns="http://www.w3.org/2000/svg" xmlns:xlink="http://www.w3.org/1999/xlink" x="0px" y="0px"
	 viewBox="0 0 259.3 152.4" enable-background="new 0 0 259.3 152.4" xml:space="preserve">
<g>
	<g opacity="0.75">
		<rect x="60.7" y="34.8" fill="none" stroke="#B5B4B3" stroke-width="2.5" stroke-miterlimit="10" width="141.8" height="95.3"/>
	</g>
	<g>
		<rect x="58.7" y="32.9" fill="none" stroke="#59C2DB" stroke-width="4" stroke-miterlimit="10" width="141.8" height="95.3"/>
	</g>
	<g opacity="0.75">
		<rect x="67.3" y="41.1" fill="#B5B4B3" width="128.5" height="82.6"/>
	</g>
	<g>
		<rect x="65.4" y="39.2" width="128.5" height="82.6"/>
	</g>
	<path opacity="0.5" fill="#CBCACA" d="M194,147.1c0,2.9-28.8,5.2-64.3,5.2s-64.3-2.3-64.3-5.2c0-2.9,28.8-3.3,64.3-3.3
		S194,144.3,194,147.1z"/>
	<line fill="none" stroke="#59C2DB" stroke-width="4" stroke-miterlimit="10" x1="179.1" y1="128" x2="179.1" y2="146.3"/>
	<line fill="none" stroke="#59C2DB" stroke-width="4" stroke-miterlimit="10" x1="84.4" y1="128" x2="84.4" y2="146.3"/>
	<line fill="none" stroke="#FFFFFF" stroke-width="3" stroke-miterlimit="10" x1="131.6" y1="48.2" x2="131.6" y2="112.9"/>
	<g>
		<path fill="#FFFFFF" d="M91.7,107c0.8-0.9,2.2-0.9,3.1-0.1l4.5,4.3l-2.7-5.5c-0.5-1.1-0.1-2.4,1-2.9c1.1-0.5,2.4-0.1,2.9,1l2.9,6
			c0.1-0.1,0.3-0.1,0.4-0.2l-1-6.1c-0.2-1.2,0.6-2.3,1.8-2.5c1.2-0.2,2.3,0.6,2.5,1.8l1.6,10.1c0,0,0,0,0,0l4.2-5.8
			c0.7-1,2.1-1.2,3.1-0.5c1,0.7,1.2,2.1,0.5,3.1l-5.2,7.2c-0.6,3.9-5.6,7.2-8.2,7.2c-3,0-6.2-7-6.9-9.4c0-0.1,0-0.2,0-0.2l-4.6-4.5
			C90.9,109.3,90.9,107.9,91.7,107z"/>
		<g>
			<polygon fill="#1D1D1B" points="116.2,153 103.3,124.2 110.1,120.1 120.3,152.4 			"/>
		</g>
	</g>
	<g>
		<path fill="#FFFFFF" d="M172.3,107.9c-0.8-0.9-2.2-0.9-3.1-0.1l-4.5,4.3l2.7-5.5c0.5-1.1,0.1-2.4-1-2.9c-1.1-0.5-2.4-0.1-2.9,1
			l-2.9,6c-0.1-0.1-0.3-0.1-0.4-0.2l1-6.1c0.2-1.2-0.6-2.3-1.8-2.5c-1.2-0.2-2.3,0.6-2.5,1.8l-1.6,10.1c0,0,0,0,0,0l-4.2-5.8
			c-0.7-1-2.1-1.2-3.1-0.5c-1,0.7-1.2,2.1-0.5,3.1l5.2,7.2c0.6,3.9,5.6,7.2,8.2,7.2c3,0,6.2-7,6.9-9.4c0-0.1,0-0.2,0-0.2l4.6-4.5
			C173.1,110.2,173.2,108.8,172.3,107.9z"/>
		<g>
			<polygon points="151,152 146.9,152.3 152.8,121 163.3,123.7 			"/>
		</g>
	</g>
	<g>
		<g>
			<g>
				<rect x="73" y="63.2" fill="#00B8D4" width="11.7" height="11.7"/>
				<rect x="73" y="63.2" fill="none" stroke="#BDBCBC" stroke-width="3" stroke-miterlimit="10" width="11.7" height="11.7"/>
				<rect x="73" y="63.2" fill="none" stroke="#FFFFFF" stroke-width="2" stroke-miterlimit="10" width="11.7" height="11.7"/>
			</g>
			<g>
				<circle fill="#FFFFFF" cx="78.9" cy="67.3" r="1.7"/>
				<path fill="#FFFFFF" d="M78.9,69.9c-1.2,0-3.5,0.6-3.5,1.7v0.9h6.9v-0.9C82.3,70.5,80,69.9,78.9,69.9z"/>
			</g>
		</g>
		<g opacity="0.5">
			<rect x="88.5" y="62.6" fill="#FFFFFF" width="26.3" height="2.5"/>
			<rect x="88.5" y="66.9" fill="#FFFFFF" width="26.3" height="2.5"/>
			<rect x="88.5" y="71.1" fill="#FFFFFF" width="12.4" height="2.5"/>
		</g>
	</g>
	<g>
		<g opacity="0.5">
			<rect x="98.7" y="86.6" fill="#FFFFFF" width="26.3" height="2.5"/>
			<rect x="98.7" y="90.9" fill="#FFFFFF" width="26.3" height="2.5"/>
			<rect x="98.7" y="95.2" fill="#FFFFFF" width="12.4" height="2.5"/>
		</g>
		<g>
			<g>
				<rect x="83.2" y="87.3" fill="#9C27B0" width="11.7" height="11.7"/>
				<rect x="83.2" y="87.3" fill="none" stroke="#BDBCBC" stroke-width="3" stroke-miterlimit="10" width="11.7" height="11.7"/>
				<rect x="83.2" y="87.3" fill="none" stroke="#FFFFFF" stroke-width="2" stroke-miterlimit="10" width="11.7" height="11.7"/>
			</g>
			<g>
				<circle fill="#FFFFFF" cx="89.1" cy="91.4" r="1.7"/>
				<path fill="#FFFFFF" d="M89.1,94c-1.2,0-3.5,0.6-3.5,1.7v0.9h6.9v-0.9C92.5,94.5,90.2,94,89.1,94z"/>
			</g>
		</g>
	</g>
	<g>
		<g opacity="0.5">
			<rect x="156.9" y="72.1" fill="#FFFFFF" width="26.3" height="2.5"/>
			<rect x="156.9" y="76.4" fill="#FFFFFF" width="26.3" height="2.5"/>
			<rect x="156.9" y="80.7" fill="#FFFFFF" width="12.4" height="2.5"/>
		</g>
		<g>
			<g>
				<rect x="141.5" y="72.7" fill="#7CB342" width="11.7" height="11.7"/>
				<rect x="141.5" y="72.7" fill="none" stroke="#BDBCBC" stroke-width="3" stroke-miterlimit="10" width="11.7" height="11.7"/>
				<rect x="141.5" y="72.7" fill="none" stroke="#FFFFFF" stroke-width="2" stroke-miterlimit="10" width="11.7" height="11.7"/>
			</g>
			<g>
				<circle fill="#FFFFFF" cx="147.3" cy="76.9" r="1.7"/>
				<path fill="#FFFFFF" d="M147.3,79.5c-1.2,0-3.5,0.6-3.5,1.7v0.9h6.9v-0.9C150.8,80,148.4,79.5,147.3,79.5z"/>
			</g>
		</g>
	</g>
</g>
</svg>
