<?xml version="1.0" encoding="utf-8"?>
<!-- Generator: Adobe Illustrator 18.1.1, SVG Export Plug-In . SVG Version: 6.00 Build 0)  -->
<!DOCTYPE svg PUBLIC "-//W3C//DTD SVG 1.1//EN" "http://www.w3.org/Graphics/SVG/1.1/DTD/svg11.dtd">
<svg version="1.1" id="Layer_1" xmlns="http://www.w3.org/2000/svg" xmlns:xlink="http://www.w3.org/1999/xlink" x="0px" y="0px"
	 viewBox="0 0 259.3 152.4" enable-background="new 0 0 259.3 152.4" xml:space="preserve">
<g>
	<g>
		<g>
			<g opacity="0.75">
				<rect x="60.7" y="34.8" fill="none" stroke="#B5B4B3" stroke-width="2.5" stroke-miterlimit="10" width="141.8" height="95.3"/>
			</g>
			<g>
				<rect x="58.7" y="32.9" fill="none" stroke="#59C2DB" stroke-width="4" stroke-miterlimit="10" width="141.8" height="95.3"/>
			</g>
			<g opacity="0.75">
				<rect x="67.3" y="41.1" fill="#B5B4B3" width="128.5" height="82.6"/>
			</g>
			<g>
				<rect x="65.4" y="39.2" width="128.5" height="82.6"/>
			</g>
			<path opacity="0.5" fill="#CBCACA" d="M194,147.1c0,2.9-28.8,5.2-64.3,5.2s-64.3-2.3-64.3-5.2c0-2.9,28.8-3.3,64.3-3.3
				S194,144.3,194,147.1z"/>
			<line fill="none" stroke="#59C2DB" stroke-width="4" stroke-miterlimit="10" x1="179.1" y1="128" x2="179.1" y2="146.3"/>
			<line fill="none" stroke="#59C2DB" stroke-width="4" stroke-miterlimit="10" x1="84.4" y1="128" x2="84.4" y2="146.3"/>
		</g>
	</g>
	<g>
		<g>
			<rect x="95.2" y="84.4" fill="#7CB342" width="11.7" height="11.7"/>
			<rect x="95.2" y="84.4" fill="none" stroke="#BDBCBC" stroke-width="3" stroke-miterlimit="10" width="11.7" height="11.7"/>
			<rect x="95.2" y="84.4" fill="none" stroke="#FFFFFF" stroke-width="2" stroke-miterlimit="10" width="11.7" height="11.7"/>
		</g>
		<g>
			<circle fill="#FFFFFF" cx="101" cy="88.5" r="1.7"/>
			<path fill="#FFFFFF" d="M101,91.1c-1.2,0-3.5,0.6-3.5,1.7v0.9h6.9v-0.9C104.5,91.7,102.2,91.1,101,91.1z"/>
		</g>
	</g>
	<g>
		<g>
			<rect x="95.2" y="51" fill="#00B8D4" width="11.7" height="11.7"/>
			<rect x="95.2" y="51" fill="none" stroke="#BDBCBC" stroke-width="3" stroke-miterlimit="10" width="11.7" height="11.7"/>
			<rect x="95.2" y="51" fill="none" stroke="#FFFFFF" stroke-width="2" stroke-miterlimit="10" width="11.7" height="11.7"/>
		</g>
		<g>
			<circle fill="#FFFFFF" cx="101" cy="55.1" r="1.7"/>
			<path fill="#FFFFFF" d="M101,57.7c-1.2,0-3.5,0.6-3.5,1.7v0.9h6.9v-0.9C104.5,58.2,102.2,57.7,101,57.7z"/>
		</g>
	</g>
	<g>
		<g>
			<rect x="95.2" y="67.6" fill="#9C27B0" width="11.7" height="11.7"/>
			<rect x="95.2" y="67.6" fill="none" stroke="#BDBCBC" stroke-width="3" stroke-miterlimit="10" width="11.7" height="11.7"/>
			<rect x="95.2" y="67.6" fill="none" stroke="#FFFFFF" stroke-width="2" stroke-miterlimit="10" width="11.7" height="11.7"/>
		</g>
		<g>
			<circle fill="#FFFFFF" cx="101" cy="71.7" r="1.7"/>
			<path fill="#FFFFFF" d="M101,74.3c-1.2,0-3.5,0.6-3.5,1.7v0.9h6.9v-0.9C104.5,74.9,102.2,74.3,101,74.3z"/>
		</g>
	</g>
	<g opacity="0.5">
		<rect x="112.5" y="50.3" fill="#FFFFFF" width="53" height="2.5"/>
		<rect x="112.5" y="54.6" fill="#FFFFFF" width="53" height="2.5"/>
		<rect x="112.5" y="58.9" fill="#FFFFFF" width="25" height="2.5"/>
	</g>
	<g opacity="0.5">
		<rect x="112.5" y="66.2" fill="#FFFFFF" width="53" height="2.5"/>
		<rect x="112.5" y="70.5" fill="#FFFFFF" width="53" height="2.5"/>
		<rect x="112.5" y="74.8" fill="#FFFFFF" width="25" height="2.5"/>
	</g>
	<g opacity="0.5">
		<rect x="112.5" y="83" fill="#FFFFFF" width="53" height="2.5"/>
		<rect x="112.5" y="87.3" fill="#FFFFFF" width="53" height="2.5"/>
		<rect x="112.5" y="91.5" fill="#FFFFFF" width="25" height="2.5"/>
	</g>
	<g>
		<g>
			<rect x="95.2" y="102.3" fill="#FF1744" width="11.7" height="11.7"/>
			<rect x="95.2" y="102.3" fill="none" stroke="#BDBCBC" stroke-width="3" stroke-miterlimit="10" width="11.7" height="11.7"/>
			<rect x="95.2" y="102.3" fill="none" stroke="#FFFFFF" stroke-width="2" stroke-miterlimit="10" width="11.7" height="11.7"/>
		</g>
		<g>
			<circle fill="#FFFFFF" cx="101" cy="106.4" r="1.7"/>
			<path fill="#FFFFFF" d="M101,109c-1.2,0-3.5,0.6-3.5,1.7v0.9h6.9v-0.9C104.5,109.6,102.2,109,101,109z"/>
		</g>
	</g>
	<g opacity="0.5">
		<rect x="112.5" y="100.9" fill="#FFFFFF" width="53" height="2.5"/>
		<rect x="112.5" y="105.2" fill="#FFFFFF" width="53" height="2.5"/>
		<rect x="112.5" y="109.4" fill="#FFFFFF" width="25" height="2.5"/>
	</g>
</g>
</svg>
