<?xml version="1.0" encoding="utf-8"?>
<!-- Generator: Adobe Illustrator 18.1.1, SVG Export Plug-In . SVG Version: 6.00 Build 0)  -->
<!DOCTYPE svg PUBLIC "-//W3C//DTD SVG 1.1//EN" "http://www.w3.org/Graphics/SVG/1.1/DTD/svg11.dtd">
<svg version="1.1" id="Layer_1" xmlns="http://www.w3.org/2000/svg" xmlns:xlink="http://www.w3.org/1999/xlink" x="0px" y="0px"
	 viewBox="0 0 500 500" enable-background="new 0 0 500 500" xml:space="preserve">
<g>
	<g>
		<path fill="#F4F3EA" d="M36.2,256.3v19.2h13.2v15.1H36.2v38.7c0,1.6,0.2,3.1,0.4,4.1c0.4,1,0.8,1.8,1.4,2.4c0.6,0.6,1.4,1,2.4,1.2
			c1,0.2,2,0.4,3.5,0.4c1.2,0,2.4,0,3.5-0.2c1,0,1.8-0.2,2.6-0.4v15.7c-1.6,0.6-3.7,1-5.7,1.4s-4.3,0.6-6.9,0.6
			c-3.5,0-6.5-0.4-9.2-1.2c-2.6-0.8-5.1-2.2-6.9-4.1s-3.5-4.1-4.5-7.1c-1-2.9-1.6-6.5-1.6-10.6v-41h-11v-15.3h11.4v-18.9H36.2z"/>
		<path fill="#F4F3EA" d="M105.9,352.8c-1-1.8-1.6-4.1-2-6.9c-2,2.2-4.7,4.3-7.9,5.9c-3.3,1.6-7.1,2.4-11.6,2.4
			c-3.7,0-7.1-0.6-10.4-1.6c-3.3-1-6.1-2.6-8.4-4.9c-2.4-2-4.3-4.5-5.5-7.3c-1.4-2.9-2-5.9-2-9.4c0-4.1,0.8-7.7,2.2-10.8
			c1.4-3.1,3.7-5.9,6.7-7.9c3.1-2.2,6.7-3.9,11.2-5.1c4.5-1.2,9.6-1.6,15.5-1.6h9.2v-4.5c0-3.7-1-6.5-2.9-8.6
			c-1.8-2.2-4.7-3.3-8.8-3.3c-3.5,0-6.3,0.8-8.1,2.4c-2,1.6-3.1,3.9-3.1,6.9H59.6c0-3.3,0.8-6.5,2.2-9.6c1.6-3.1,3.7-5.7,6.7-7.9
			c2.9-2.2,6.3-4.1,10.4-5.3c4.1-1.2,8.6-2,13.7-2c4.5,0,8.6,0.6,12.4,1.6c3.9,1.2,7.1,2.9,10,5.1c2.9,2.2,4.9,5.1,6.5,8.6
			c1.2,3.5,2,7.5,2,12v32.8c0,2.2,0,4.1,0.2,5.9c0.2,1.8,0.4,3.3,0.6,4.7c0.2,1.4,0.6,2.6,1,3.9c0.4,1.2,0.8,2.2,1.4,3.3v1.2
			C126.9,352.8,105.9,352.8,105.9,352.8z M88.8,338.4c1.8,0,3.5-0.2,4.9-0.6c1.4-0.4,2.9-1,4.1-1.6s2.2-1.4,3.1-2.4
			c0.8-0.8,1.6-1.8,2-2.9v-13.2h-8.6c-2.6,0-5.1,0.2-7.1,0.8s-3.7,1.4-4.9,2.4c-1.2,1-2.2,2.2-2.9,3.9c-0.6,1.4-1,3.1-1,4.7
			c0,2.6,0.8,4.7,2.6,6.3C83.1,337.6,85.5,338.4,88.8,338.4z"/>
		<path fill="#F4F3EA" d="M161.5,352.8h-20.8v-110h20.8V352.8z"/>
		<path fill="#F4F3EA" d="M206.5,321.7l-7.3,7.5v23.6h-20.8v-110h20.8v60.9l4.1-5.1l19.8-23.2h24.9L220,307.8l30.4,45.2h-23.8
			L206.5,321.7z"/>
		<path fill="#F4F3EA" d="M278.7,334.9l1.2,6.7l1.6-6.9l18.5-59.3h7.3l18.3,58.9l2,8.1l1.6-7.5l15.9-59.5h9l-22.6,77.4h-7.3
			l-20-61.5l-1-4.3l-1,4.3l-19.6,61.3h-7.3L253,275.2h8.8L278.7,334.9z"/>
		<path fill="#F4F3EA" d="M419.6,352.8c-0.4-1.4-0.8-3.1-1-4.9s-0.4-3.9-0.6-5.9c-1.2,1.6-2.9,3.3-4.5,4.7c-1.8,1.4-3.7,2.9-5.9,3.9
			c-2.2,1-4.7,2-7.3,2.6s-5.5,1-8.6,1c-3.9,0-7.1-0.6-10.2-1.6s-5.7-2.6-7.9-4.7c-2.2-2-3.9-4.3-5.1-6.9c-1.2-2.6-1.8-5.5-1.8-8.8
			c0-3.9,0.8-7.1,2.4-10.2c1.6-3.1,3.9-5.7,6.9-7.7c3.1-2,6.7-3.7,11.2-4.9c4.3-1.2,9.4-1.6,14.7-1.6h15.9V299c0-5.5-1.6-10-5.1-13
			c-3.5-3.3-8.4-4.7-14.9-4.7c-3.1,0-5.7,0.4-8.4,1.2c-2.4,0.8-4.7,1.8-6.5,3.5s-3.3,3.1-4.3,4.9c-1,1.8-1.6,3.9-1.6,6.1h-8.6
			c0-2.9,0.8-5.7,2.2-8.4s3.5-5.1,6.1-7.3c2.6-2,5.7-3.9,9.4-5.1c3.7-1.2,7.7-1.8,12.2-1.8c4.1,0,7.9,0.6,11.4,1.6
			c3.5,1,6.5,2.6,9,4.7c2.4,2,4.5,4.7,5.7,7.9c1.2,3.3,2,6.9,2,11v37.5c0,1.4,0,2.6,0.2,4.1c0.2,1.4,0.2,2.9,0.4,4.1
			c0.2,1.4,0.4,2.6,0.8,3.9c0.4,1.2,0.6,2.2,1,3.3v0.8h-9.4V352.8z M392.5,346.5c3.1,0,5.9-0.4,8.6-1.2s5.1-1.8,7.1-3.3
			c2.2-1.4,4.1-3.1,5.5-4.9c1.6-1.8,2.9-3.9,3.9-5.9v-17.1h-14.7c-4.5,0-8.4,0.4-11.8,1.2s-6.3,1.8-8.8,3.5
			c-2.4,1.4-4.3,3.3-5.5,5.5c-1.2,2-1.8,4.5-1.8,7.1c0,2,0.4,4.1,1.2,5.9c0.8,1.8,2,3.5,3.5,4.9c1.4,1.4,3.3,2.4,5.5,3.3
			C387.5,346.3,389.9,346.5,392.5,346.5z"/>
		<path fill="#F4F3EA" d="M458.8,352.8h-8.6v-110h8.6V352.8z"/>
		<path fill="#F4F3EA" d="M491.8,352.8h-8.6v-110h8.6V352.8z"/>
	</g>
	<g>
		<path fill="#FFFFFF" d="M254.4,95.4c30.4,0,55,24.8,55,55s-24.8,55-55,55h-46.5l7.6-7.6l4.2-4.2l-4.2-4.2
			c-10.5-10.5-16.1-24.2-16.1-38.8C199.5,120,224.2,95.4,254.4,95.4 M254.4,89.4c-33.6,0-61,27.4-61,61c0,16.9,6.8,32.2,17.9,43.1
			l-17.9,17.9h61c33.6,0,61-27.4,61-61C315.6,116.7,288.2,89.4,254.4,89.4L254.4,89.4z"/>
	</g>
	<g>
		<path fill="#F4F3EA" d="M23.6,399.5c0-0.4,0-0.9-0.2-1.3c-0.2-0.4-0.4-0.9-1-1.3c-0.4-0.4-1.2-0.7-2-1.1s-2-0.7-3.2-0.9
			c-1.2-0.2-2.6-0.7-3.6-1.1s-2-0.7-2.6-1.3c-0.6-0.6-1.4-0.9-1.8-1.7c-0.4-0.7-0.6-1.5-0.6-2.4c0-0.7,0.2-1.7,0.6-2.4
			c0.4-0.7,1-1.5,1.8-2c0.8-0.6,1.6-0.9,2.6-1.3s2.2-0.6,3.6-0.6s2.6,0.2,3.8,0.6c1.2,0.4,2,0.7,2.8,1.5c0.8,0.6,1.4,1.3,1.8,2.2
			s0.6,1.7,0.6,2.6h-2.6c0-0.6-0.2-1.1-0.4-1.7s-0.6-1.1-1.2-1.5c-0.6-0.4-1.2-0.7-2-1.1c-0.8-0.2-1.6-0.4-2.6-0.4s-2,0.2-2.6,0.4
			c-0.8,0.2-1.4,0.6-1.8,0.9s-0.8,0.7-1,1.3c-0.2,0.6-0.4,0.9-0.4,1.5s0,0.9,0.2,1.3c0.2,0.4,0.4,0.7,1,1.1c0.4,0.4,1.2,0.7,2,0.9
			c0.8,0.4,2,0.6,3.4,0.9c1.2,0.4,2.4,0.7,3.4,1.1c1,0.4,2,0.9,2.6,1.3c0.6,0.6,1.2,1.1,1.6,1.8c0.4,0.7,0.6,1.5,0.6,2.4
			s-0.2,1.8-0.6,2.6s-1,1.5-1.8,2c-0.8,0.6-1.8,0.9-2.8,1.3c-1.2,0.4-2.4,0.4-3.8,0.4c-1.6,0-3-0.2-4-0.6s-2.2-0.9-3-1.5
			c-0.8-0.6-1.6-1.3-2-2.2c-0.4-0.7-0.6-1.7-0.6-2.6h2.6c0,0.9,0.4,1.7,0.8,2.2s1,1.1,1.6,1.5c0.6,0.4,1.4,0.6,2.2,0.7
			c0.8,0.2,1.6,0.2,2.4,0.2c1,0,2-0.2,2.6-0.4c0.6-0.2,1.4-0.6,2-0.9c0.6-0.4,1-0.7,1.2-1.3C23.6,400.4,23.6,400,23.6,399.5z"/>
		<path fill="#F4F3EA" d="M35,386.6c0.4-0.6,1-1.3,1.4-1.7c0.6-0.6,1.2-0.9,1.8-1.3c0.6-0.4,1.4-0.7,2.2-0.9
			c0.8-0.2,1.6-0.4,2.4-0.4c1.2,0,2.2,0.2,3.2,0.4c1,0.4,1.8,0.7,2.4,1.5c0.6,0.7,1.2,1.5,1.6,2.6c0.4,1.1,0.6,2.2,0.6,3.7V405H48
			v-14.6c0-1.1-0.2-2.2-0.4-3c-0.2-0.7-0.6-1.5-1.2-1.8c-0.4-0.6-1-0.7-1.8-0.9c-0.8-0.2-1.6-0.4-2.4-0.4c-1,0-1.8,0.2-2.6,0.4
			c-0.8,0.2-1.4,0.7-2,1.1c-0.6,0.4-1.2,1.1-1.6,1.7c-0.4,0.6-0.8,1.3-1,2v15.3h-2.6v-31.6H35V386.6z"/>
		<path fill="#F4F3EA" d="M72.9,405.2c-0.2-0.4-0.2-0.9-0.4-1.5c0-0.6-0.2-1.1-0.2-1.7c-0.4,0.6-0.8,0.9-1.4,1.3
			c-0.6,0.4-1.2,0.7-1.8,1.1c-0.6,0.4-1.4,0.6-2.2,0.7c-0.8,0.2-1.8,0.4-2.6,0.4c-1.2,0-2.2-0.2-3.2-0.6c-1-0.4-1.8-0.7-2.4-1.3
			c-0.6-0.6-1.2-1.3-1.6-2c-0.4-0.7-0.6-1.7-0.6-2.6c0-1.1,0.2-2,0.8-3c0.6-0.9,1.2-1.7,2.2-2.2c1-0.6,2.2-1.1,3.4-1.5
			c1.4-0.4,3-0.6,4.6-0.6h5v-2.6c0-1.7-0.6-3-1.6-3.7c-1-0.9-2.6-1.3-4.6-1.3c-1,0-1.8,0.2-2.6,0.4c-0.8,0.2-1.4,0.6-2,0.9
			c-0.6,0.4-1,0.9-1.4,1.5c-0.4,0.6-0.4,1.1-0.4,1.7h-2.6c0-0.9,0.2-1.7,0.6-2.4c0.4-0.7,1-1.5,1.8-2c0.8-0.6,1.8-1.1,3-1.5
			c1.2-0.4,2.4-0.6,3.8-0.6c1.2,0,2.4,0.2,3.6,0.4c1,0.4,2,0.7,2.8,1.3c0.8,0.6,1.4,1.3,1.8,2.2s0.6,2,0.6,3.1v11.1
			c0,0.4,0,0.7,0,1.3s0,0.7,0.2,1.3c0,0.4,0.2,0.7,0.2,1.1s0.2,0.7,0.4,0.9v0.2L72.9,405.2L72.9,405.2z M64.6,403.3
			c1,0,1.8-0.2,2.8-0.4c0.8-0.2,1.6-0.6,2.2-0.9c0.6-0.4,1.2-0.9,1.8-1.5c0.4-0.6,0.8-1.1,1.2-1.7v-5h-4.6c-1.4,0-2.6,0.2-3.6,0.4
			c-1,0.2-2,0.6-2.8,0.9c-0.8,0.4-1.4,0.9-1.8,1.5c-0.4,0.6-0.6,1.3-0.6,2c0,0.6,0.2,1.1,0.4,1.7c0.2,0.6,0.6,0.9,1,1.5
			c0.4,0.4,1,0.7,1.8,0.9C63,403.2,63.6,403.3,64.6,403.3z"/>
		<path fill="#F4F3EA" d="M93.5,384.9c-0.6-0.2-1.2-0.2-1.8-0.2c-1,0-1.8,0.2-2.4,0.4c-0.6,0.2-1.4,0.6-2,1.1
			c-0.6,0.4-1,0.9-1.4,1.7c-0.4,0.6-0.6,1.3-1,2v15.3h-2.6v-22.5h2.6v3.5c0.6-1.3,1.6-2.2,2.6-3c1.2-0.7,2.6-1.1,4.2-1.1
			c0.4,0,0.6,0,1,0s0.6,0.2,0.8,0.2L93.5,384.9z"/>
		<path fill="#F4F3EA" d="M97.5,376.2c0-0.6,0.2-0.9,0.4-1.1c0.4-0.4,0.8-0.6,1.4-0.6c0.6,0,1,0.2,1.4,0.6c0.4,0.4,0.6,0.7,0.6,1.1
			c0,0.6-0.2,0.9-0.6,1.1c-0.4,0.4-0.8,0.6-1.4,0.6c-0.6,0-1-0.2-1.4-0.6C97.7,377.1,97.5,376.8,97.5,376.2z M100.7,405.2h-2.6
			v-22.5h2.6V405.2z"/>
		<path fill="#F4F3EA" d="M110.5,382.7v3.9c0.4-0.6,1-1.3,1.4-1.7c0.6-0.6,1.2-0.9,1.8-1.3c0.6-0.4,1.4-0.7,2.2-0.9
			c0.8-0.2,1.6-0.4,2.4-0.4c1.2,0,2.2,0.2,3.2,0.4c1,0.4,1.8,0.7,2.4,1.5c0.6,0.7,1.2,1.5,1.6,2.6c0.4,1.1,0.6,2.2,0.6,3.7V405h-2.6
			v-14.6c0-1.1-0.2-2.2-0.4-3c-0.2-0.7-0.6-1.5-1.2-1.8c-0.4-0.6-1-0.7-1.8-0.9c-0.8-0.2-1.6-0.4-2.4-0.4c-1,0-1.8,0.2-2.6,0.4
			c-0.8,0.4-1.4,0.7-2,1.1c-0.6,0.6-1.2,1.1-1.6,1.7c-0.4,0.6-0.8,1.3-1,2v15.3h-2.6v-22.1H110.5z"/>
		<path fill="#F4F3EA" d="M132,393.7c0-1.7,0.2-3.3,0.6-4.8c0.4-1.5,1-2.6,1.8-3.5s1.8-1.8,3-2.2c1.2-0.4,2.4-0.7,4-0.7
			c1.8,0,3.2,0.4,4.4,0.9c1.2,0.6,2.2,1.5,3,2.8l0.2-3.3h2.6v22c0,1.5-0.2,2.8-0.6,3.9c-0.4,1.1-1.2,2.2-2,3c-0.8,0.7-1.8,1.5-3,1.8
			c-1.2,0.4-2.6,0.6-4,0.6c-0.8,0-1.6,0-2.4-0.2c-0.8-0.2-1.6-0.4-2.4-0.7c-0.8-0.4-1.4-0.7-2.2-1.1c-0.6-0.6-1.2-1.1-1.8-1.7
			l1.6-1.5c1,1.1,2,1.8,3.2,2.4c1.2,0.6,2.4,0.7,3.6,0.7c1.2,0,2.2-0.2,3-0.6c0.8-0.4,1.6-0.7,2.2-1.5c0.6-0.6,1-1.3,1.4-2.2
			c0.4-0.9,0.4-1.8,0.4-3v-2.6c-0.8,1.1-1.8,1.8-3,2.4c-1.2,0.6-2.8,0.9-4.4,0.9c-1.4,0-2.8-0.4-4-0.9c-1.2-0.6-2.2-1.3-3-2.4
			c-0.8-0.9-1.4-2.2-1.8-3.5c-0.4-1.5-0.6-3-0.6-4.6v-0.4H132z M134.8,394.1c0,1.3,0.2,2.6,0.4,3.7c0.2,1.1,0.8,2,1.4,3
			c0.6,0.9,1.4,1.5,2.2,2c0.8,0.6,2,0.7,3.2,0.7c1,0,1.8-0.2,2.6-0.4c0.8-0.2,1.4-0.6,2-0.9s1-0.7,1.4-1.3c0.4-0.6,0.8-1.1,1-1.7
			V389c-0.2-0.6-0.6-1.1-1-1.7c-0.4-0.6-0.8-0.9-1.4-1.5c-0.6-0.4-1.2-0.7-2-0.9c-0.8-0.2-1.6-0.4-2.6-0.4c-1.2,0-2.4,0.2-3.2,0.7
			c-0.8,0.6-1.6,1.1-2.2,2c-0.6,0.9-1,1.8-1.4,3c-0.2,1.1-0.4,2.4-0.4,3.7V394.1z"/>
		<path fill="#F4F3EA" d="M179.1,405.6c-1.6,0-3-0.2-4.4-0.7s-2.4-1.3-3.4-2.2s-1.8-2.2-2.2-3.5c-0.6-1.3-0.8-2.8-0.8-4.4v-0.9
			c0-1.7,0.2-3.3,0.8-4.6c0.6-1.5,1.4-2.6,2.2-3.5c1-0.9,2-1.7,3.4-2.2s2.6-0.7,4-0.7c1.6,0,3,0.2,4.2,0.7c1.2,0.6,2.2,1.3,3,2.2
			c0.8,0.9,1.4,2,1.8,3.3c0.4,1.3,0.6,2.6,0.6,4.1v1.5h-17.4v0.6c0,1.3,0.2,2.4,0.6,3.5c0.4,1.1,1,2,1.8,2.8
			c0.8,0.7,1.6,1.5,2.6,1.8c1,0.6,2.2,0.7,3.4,0.7c1.4,0,2.8-0.2,3.8-0.7s2-1.3,3-2.4l1.6,1.1c-0.4,0.6-0.8,1.1-1.4,1.5
			c-0.6,0.6-1.2,0.9-1.8,1.3c-0.8,0.4-1.4,0.6-2.4,0.9C181.3,405.4,180.3,405.6,179.1,405.6z M178.7,384.3c-1,0-2,0.2-2.8,0.6
			c-0.8,0.4-1.6,0.9-2.4,1.5c-0.8,0.6-1.2,1.5-1.6,2.4c-0.4,0.9-0.8,2-0.8,3.1h14.6v-0.2c0-0.9-0.2-1.8-0.4-2.8
			c-0.2-0.9-0.8-1.7-1.4-2.4c-0.6-0.7-1.2-1.3-2.2-1.7C180.7,384.5,179.7,384.3,178.7,384.3z"/>
		<path fill="#F4F3EA" d="M201.1,391.7l6.6-9h3.2l-8.2,11.1l8.6,11.4h-3.2l-7-9.4l-7,9.4h-3.2l8.6-11.4l-8.2-11.1h3.2L201.1,391.7z"
			/>
		<path fill="#F4F3EA" d="M235.4,394.1c0,1.7-0.2,3.1-0.6,4.6c-0.4,1.5-1,2.6-1.8,3.5s-1.8,1.8-3,2.4c-1.2,0.6-2.4,0.9-4,0.9
			c-1.8,0-3.2-0.4-4.6-0.9c-1.2-0.6-2.4-1.3-3.2-2.4v11.4h-2.6v-31h2.4l0.2,3.1c0.8-1.1,1.8-2,3.2-2.6c1.2-0.6,2.8-0.9,4.4-0.9
			c1.4,0,2.8,0.2,4,0.7c1.2,0.6,2.2,1.3,3,2.2s1.4,2.2,1.8,3.5c0.4,1.3,0.6,3,0.6,4.8v0.6H235.4z M232.6,393.7
			c0-1.3-0.2-2.6-0.4-3.7c-0.2-1.1-0.8-2-1.4-3c-0.6-0.7-1.4-1.5-2.2-2c-1-0.6-2-0.7-3.2-0.7c-1,0-1.8,0.2-2.6,0.4
			c-0.8,0.2-1.4,0.6-2,0.9c-0.6,0.4-1,0.9-1.4,1.3c-0.4,0.6-0.8,1.1-1,1.7v10.7c0.2,0.6,0.6,1.1,1,1.7c0.4,0.6,1,0.9,1.6,1.3
			s1.2,0.6,2,0.7c0.8,0.2,1.6,0.4,2.4,0.4c1.2,0,2.2-0.2,3.2-0.7c0.8-0.6,1.6-1.1,2.2-2c0.6-0.9,1-1.8,1.4-3
			c0.2-1.1,0.4-2.4,0.4-3.7V393.7z"/>
		<path fill="#F4F3EA" d="M244.2,405.2h-2.6v-31.9h2.6V405.2z"/>
		<path fill="#F4F3EA" d="M250,393.6c0-1.7,0.2-3.1,0.8-4.4s1.2-2.6,2.2-3.5c1-0.9,2-1.8,3.4-2.4c1.4-0.6,2.8-0.9,4.4-0.9
			c1.6,0,3.2,0.4,4.6,0.9s2.4,1.3,3.4,2.4c1,1.1,1.6,2.2,2.2,3.5c0.6,1.3,0.8,3,0.8,4.4v0.7c0,1.7-0.2,3.1-0.8,4.4s-1.2,2.6-2.2,3.5
			c-1,0.9-2,1.8-3.4,2.4s-2.8,0.9-4.4,0.9s-3.2-0.4-4.4-0.9c-1.4-0.6-2.4-1.3-3.4-2.4c-1-0.9-1.6-2.2-2.2-3.5
			c-0.6-1.3-0.8-3-0.8-4.4v-0.7H250z M252.8,394.3c0,1.3,0.2,2.4,0.6,3.5c0.4,1.1,0.8,2,1.6,3c0.6,0.9,1.6,1.5,2.6,2
			c1,0.6,2.2,0.7,3.6,0.7c1.4,0,2.4-0.2,3.4-0.7c1-0.6,1.8-1.1,2.6-2c0.6-0.9,1.2-1.8,1.6-3c0.4-1.1,0.6-2.2,0.6-3.5v-0.7
			c0-1.3-0.2-2.4-0.6-3.5c-0.4-1.1-0.8-2-1.6-3c-0.6-0.9-1.6-1.5-2.6-2c-1-0.6-2.2-0.7-3.6-0.7s-2.4,0.2-3.4,0.7s-1.8,1.1-2.6,2
			c-0.6,0.9-1.2,1.8-1.6,3c-0.4,1.1-0.6,2.2-0.6,3.5V394.3z"/>
		<path fill="#F4F3EA" d="M288.5,384.9c-0.6-0.2-1.2-0.2-1.8-0.2c-1,0-1.8,0.2-2.4,0.4c-0.6,0.2-1.4,0.6-2,1.1
			c-0.6,0.4-1,0.9-1.4,1.7c-0.4,0.6-0.6,1.3-1,2v15.3h-2.6v-22.5h2.6v3.5c0.6-1.3,1.6-2.2,2.6-3c1.2-0.7,2.6-1.1,4.2-1.1
			c0.4,0,0.6,0,1,0s0.6,0.2,0.8,0.2L288.5,384.9z"/>
		<path fill="#F4F3EA" d="M307.1,405.2c-0.2-0.4-0.2-0.9-0.4-1.5c0-0.6-0.2-1.1-0.2-1.7c-0.4,0.6-0.8,0.9-1.4,1.3
			c-0.6,0.4-1.2,0.7-1.8,1.1c-0.6,0.4-1.4,0.6-2.2,0.7c-0.8,0.2-1.8,0.4-2.6,0.4c-1.2,0-2.2-0.2-3.2-0.6c-1-0.4-1.8-0.7-2.4-1.3
			c-0.6-0.6-1.2-1.3-1.6-2c-0.4-0.7-0.6-1.7-0.6-2.6c0-1.1,0.2-2,0.8-3c0.6-0.9,1.2-1.7,2.2-2.2c1-0.6,2.2-1.1,3.4-1.5
			c1.4-0.4,3-0.6,4.6-0.6h5v-2.6c0-1.7-0.6-3-1.6-3.7c-1-0.7-2.6-1.3-4.6-1.3c-1,0-1.8,0.2-2.6,0.4c-0.8,0.2-1.4,0.6-2,0.9
			c-0.6,0.4-1,0.9-1.4,1.5c-0.4,0.6-0.4,1.1-0.4,1.7h-2.6c0-0.9,0.2-1.7,0.6-2.4s1-1.5,1.8-2c0.8-0.6,1.8-1.1,3-1.5
			c1.2-0.4,2.4-0.6,3.8-0.6c1.2,0,2.4,0.2,3.6,0.4c1,0.4,2,0.7,2.8,1.3c0.8,0.6,1.4,1.3,1.8,2.2c0.4,0.9,0.6,2,0.6,3.1v11.1
			c0,0.4,0,0.7,0,1.3c0,0.4,0,0.7,0.2,1.3c0,0.4,0.2,0.7,0.2,1.1s0.2,0.7,0.4,0.9v0.2L307.1,405.2L307.1,405.2z M298.7,403.3
			c1,0,1.8-0.2,2.8-0.4c0.8-0.2,1.6-0.6,2.2-0.9c0.6-0.4,1.2-0.9,1.8-1.5c0.4-0.6,0.8-1.1,1.2-1.7v-5h-4.6c-1.4,0-2.6,0.2-3.6,0.4
			c-1,0.2-2,0.6-2.8,0.9c-0.8,0.4-1.4,0.9-1.8,1.5c-0.4,0.6-0.6,1.3-0.6,2c0,0.6,0.2,1.1,0.4,1.7c0.2,0.6,0.6,0.9,1,1.5
			c0.4,0.4,1,0.7,1.8,0.9C297.1,403.2,297.9,403.3,298.7,403.3z"/>
		<path fill="#F4F3EA" d="M320.6,377v5.7h5v2h-5v14.9c0,0.7,0,1.5,0.2,1.8c0.2,0.6,0.4,0.9,0.6,1.1c0.2,0.2,0.6,0.4,1,0.6
			c0.4,0,0.8,0.2,1.2,0.2c0.4,0,0.8,0,1.2,0c0.4,0,0.8-0.2,1-0.2l0.2,2c-0.4,0.2-0.8,0.2-1.2,0.2c-0.6,0-1,0-1.6,0
			c-0.8,0-1.4,0-2.2-0.4c-0.6-0.2-1.2-0.6-1.6-0.9c-0.4-0.4-0.8-1.1-1-1.8s-0.4-1.7-0.4-2.8v-14.9h-4.4v-2h4.4v-5.7h2.6V377z"/>
		<path fill="#F4F3EA" d="M329.2,393.6c0-1.7,0.2-3.1,0.8-4.4c0.6-1.3,1.2-2.6,2.2-3.5c1-0.9,2-1.8,3.4-2.4s2.8-0.9,4.4-0.9
			s3.2,0.4,4.6,0.9s2.4,1.3,3.4,2.4c1,0.9,1.6,2.2,2.2,3.5c0.6,1.3,0.8,3,0.8,4.4v0.7c0,1.7-0.2,3.1-0.8,4.4
			c-0.6,1.3-1.2,2.6-2.2,3.5c-1,0.9-2,1.8-3.4,2.4s-2.8,0.9-4.4,0.9s-3.2-0.4-4.4-0.9c-1.4-0.6-2.4-1.3-3.4-2.4
			c-1-0.9-1.6-2.2-2.2-3.5c-0.6-1.3-0.8-3-0.8-4.4v-0.7H329.2z M331.8,394.3c0,1.3,0.2,2.4,0.6,3.5s0.8,2,1.6,3
			c0.6,0.9,1.6,1.5,2.6,2c1,0.6,2.2,0.7,3.6,0.7s2.4-0.2,3.4-0.7c1-0.6,1.8-1.1,2.6-2c0.6-0.9,1.2-1.8,1.6-3
			c0.4-1.1,0.6-2.2,0.6-3.5v-0.7c0-1.3-0.2-2.4-0.6-3.5c-0.4-1.1-0.8-2-1.6-3c-0.6-0.9-1.6-1.5-2.6-2c-1-0.6-2.2-0.7-3.6-0.7
			s-2.4,0.2-3.4,0.7s-1.8,1.1-2.6,2c-0.6,0.9-1.2,1.8-1.6,3s-0.6,2.2-0.6,3.5V394.3z"/>
		<path fill="#F4F3EA" d="M367.5,384.9c-0.6-0.2-1.2-0.2-1.8-0.2c-1,0-1.8,0.2-2.4,0.4c-0.6,0.2-1.4,0.6-2,1.1
			c-0.6,0.4-1,0.9-1.4,1.7c-0.4,0.6-0.6,1.3-1,2v15.3h-2.6v-22.5h2.6v3.5c0.6-1.3,1.6-2.2,2.6-3c1-0.7,2.6-1.1,4.2-1.1
			c0.4,0,0.6,0,1,0s0.6,0.2,0.8,0.2L367.5,384.9z"/>
		<path fill="#F4F3EA" d="M379.9,401.5l7-18.8h2.8l-10.2,26c-0.2,0.6-0.4,1.1-0.8,1.7s-0.8,1.3-1.2,1.8c-0.6,0.6-1.2,1.1-2,1.5
			c-0.8,0.4-1.8,0.6-2.8,0.6c-0.2,0-0.4,0-0.6,0s-0.4,0-0.6,0c-0.2,0-0.4,0-0.6,0s-0.4,0-0.4-0.2v-2c0.2,0,0.4,0,0.8,0
			c0.4,0,0.6,0,0.6,0c0.8,0,1.4,0,2-0.2c0.6-0.2,1-0.4,1.4-0.7c0.4-0.4,0.8-0.7,1-1.3c0.4-0.6,0.6-1.1,0.8-1.8l1.2-3l-9.2-22.1h3
			L379.9,401.5z"/>
		<path fill="#F4F3EA" d="M409.5,377v5.7h5v2h-5v14.9c0,0.7,0,1.5,0.2,1.8c0.2,0.6,0.4,0.9,0.6,1.1c0.2,0.2,0.6,0.4,1,0.6
			c0.4,0,0.8,0.2,1.2,0.2c0.4,0,0.8,0,1.2,0c0.4,0,0.8-0.2,1-0.2l0.2,2c-0.4,0.2-0.8,0.2-1.2,0.2c-0.6,0-1,0-1.6,0
			c-0.8,0-1.4,0-2.2-0.4c-0.6-0.2-1.2-0.6-1.6-0.9s-0.8-1.1-1-1.8c-0.2-0.7-0.4-1.7-0.4-2.8v-14.9h-4.4v-2h4.4v-5.7h2.6V377z"/>
		<path fill="#F4F3EA" d="M435.2,405.2c-0.2-0.4-0.2-0.9-0.4-1.5c0-0.6-0.2-1.1-0.2-1.7c-0.4,0.6-0.8,0.9-1.4,1.3
			c-0.6,0.4-1.2,0.7-1.8,1.1s-1.4,0.6-2.2,0.7c-0.8,0.2-1.8,0.4-2.6,0.4c-1.2,0-2.2-0.2-3.2-0.6c-1-0.4-1.8-0.7-2.4-1.3
			c-0.6-0.6-1.2-1.3-1.6-2c-0.4-0.7-0.6-1.7-0.6-2.6c0-1.1,0.2-2,0.8-3c0.6-0.9,1.2-1.7,2.2-2.2c1-0.6,2.2-1.1,3.4-1.5
			c1.4-0.4,3-0.6,4.6-0.6h5v-2.6c0-1.7-0.6-3-1.6-3.7c-1-0.9-2.6-1.3-4.6-1.3c-1,0-1.8,0.2-2.6,0.4c-0.8,0.2-1.4,0.6-2,0.9
			c-0.6,0.4-1,0.9-1.4,1.5c-0.4,0.6-0.4,1.1-0.4,1.7h-2.6c0-0.9,0.2-1.7,0.6-2.4s1-1.5,1.8-2c0.8-0.6,1.8-1.1,3-1.5
			c1.2-0.4,2.4-0.6,3.8-0.6c1.2,0,2.4,0.2,3.6,0.4c1,0.4,2,0.7,2.8,1.3c0.8,0.6,1.4,1.3,1.8,2.2c0.4,0.9,0.6,2,0.6,3.1v11.1
			c0,0.4,0,0.7,0,1.3c0,0.4,0,0.7,0.2,1.3c0,0.4,0.2,0.7,0.2,1.1s0.2,0.7,0.4,0.9v0.2L435.2,405.2L435.2,405.2z M426.8,403.3
			c1,0,1.8-0.2,2.8-0.4c0.8-0.2,1.6-0.6,2.2-0.9c0.6-0.4,1.2-0.9,1.8-1.5c0.4-0.6,0.8-1.1,1.2-1.7v-5h-4.6c-1.4,0-2.6,0.2-3.6,0.4
			c-1,0.2-2,0.6-2.8,0.9c-0.8,0.4-1.4,0.9-1.8,1.5c-0.4,0.6-0.6,1.3-0.6,2c0,0.6,0.2,1.1,0.4,1.7s0.6,0.9,1,1.5
			c0.4,0.4,1,0.7,1.8,0.9C425.2,403.2,426,403.3,426.8,403.3z"/>
		<path fill="#F4F3EA" d="M447.6,405.2h-2.8v-31.9h2.6v31.9H447.6z"/>
		<path fill="#F4F3EA" d="M460.6,393.7l-3,2.8v8.5h-2.8v-31.7h2.6v20.3l2.6-2.6l9.2-8.5h3.4l-10.4,9.4l11.2,12.9h-3.2L460.6,393.7z"
			/>
		<path fill="#F4F3EA" d="M491.9,399.5c0-0.4,0-0.9-0.2-1.3c-0.2-0.4-0.4-0.9-1-1.3c-0.4-0.4-1.2-0.7-2-1.1s-2-0.7-3.2-0.9
			c-1.2-0.2-2.6-0.6-3.6-0.9c-1-0.4-2-0.7-2.6-1.3c-0.6-0.6-1.2-1.1-1.6-1.7c-0.4-0.7-0.6-1.5-0.6-2.4c0-0.7,0.2-1.7,0.6-2.4
			c0.4-0.7,1-1.5,1.8-2c0.8-0.6,1.6-0.9,2.6-1.3c1-0.4,2.2-0.6,3.6-0.6s2.6,0.2,3.8,0.6c1.2,0.4,2,0.7,2.8,1.5
			c0.8,0.6,1.4,1.3,1.8,2.2c0.4,0.7,0.6,1.7,0.6,2.6h-2.6c0-0.6-0.2-1.1-0.4-1.7s-0.6-1.1-1.2-1.5c-0.6-0.4-1.2-0.7-2-1.1
			c-0.8-0.2-1.6-0.4-2.6-0.4s-2,0.2-2.6,0.4c-0.8,0.2-1.4,0.6-1.8,0.9s-0.8,0.7-1,1.3c-0.2,0.6-0.4,0.9-0.4,1.5s0,0.9,0.2,1.3
			c0.2,0.4,0.4,0.7,1,1.1c0.4,0.4,1.2,0.7,2,0.9c0.8,0.4,2,0.6,3.4,0.9s2.8,0.7,3.8,1.1c1,0.4,2,0.9,2.6,1.3
			c0.6,0.6,1.2,1.1,1.6,1.8c0.4,0.7,0.6,1.5,0.6,2.4s-0.2,1.8-0.6,2.6c-0.4,0.7-1,1.5-1.8,2c-0.8,0.6-1.8,0.9-2.8,1.3
			c-1.2,0.4-2.4,0.4-3.8,0.4c-1.6,0-3-0.2-4-0.6c-1.2-0.4-2.2-0.9-3-1.5c-0.8-0.6-1.4-1.3-1.8-2.2c-0.4-0.7-0.6-1.7-0.6-2.6h2.6
			c0,0.9,0.4,1.7,0.8,2.2c0.4,0.6,1,1.1,1.6,1.5c0.6,0.4,1.4,0.6,2.2,0.7c0.8,0.2,1.6,0.2,2.4,0.2c1,0,2-0.2,2.6-0.4
			c0.8-0.2,1.4-0.6,2-0.9c0.6-0.4,1-0.7,1.2-1.3C491.7,400.4,491.9,400,491.9,399.5z"/>
	</g>
</g>
</svg>
