<?xml version="1.0" encoding="utf-8"?>
<!-- Generator: Adobe Illustrator 18.1.0, SVG Export Plug-In . SVG Version: 6.00 Build 0)  -->
<!DOCTYPE svg PUBLIC "-//W3C//DTD SVG 1.1//EN" "http://www.w3.org/Graphics/SVG/1.1/DTD/svg11.dtd">
<svg version="1.1" id="Layer_1" xmlns="http://www.w3.org/2000/svg" xmlns:xlink="http://www.w3.org/1999/xlink" x="0px" y="0px"
	 viewBox="0 0 248.4 176.8" enable-background="new 0 0 248.4 176.8" xml:space="preserve">
<g>
	<g>
		<path fill="#F7F7F6" d="M26.5,131c0-1-0.5-1.9-1.4-2.6c-1-0.7-2.7-1.4-5.4-1.9c-4-0.8-7-2-9-3.6s-3-3.7-3-6.5
			c0-2.9,1.2-5.4,3.6-7.4c2.4-2,5.7-3,9.8-3c4.3,0,7.7,1,10.2,3c2.5,2,3.8,4.5,3.6,7.6l-0.1,0.2h-8.8c0-1.3-0.4-2.4-1.3-3.3
			c-0.9-0.8-2.1-1.3-3.8-1.3c-1.5,0-2.6,0.4-3.5,1.1c-0.8,0.7-1.3,1.6-1.3,2.7c0,1,0.4,1.9,1.3,2.5c0.9,0.7,2.7,1.3,5.4,1.8
			c4.1,0.8,7.2,2,9.2,3.6c2,1.6,3,3.8,3,6.6c0,3-1.3,5.5-3.9,7.4c-2.6,1.9-6,2.9-10.3,2.9c-4.5,0-8-1.1-10.6-3.4s-3.8-4.9-3.7-7.8
			l0.1-0.2h8.3c0.1,1.8,0.7,3.1,1.8,3.9s2.6,1.2,4.4,1.2c1.7,0,3-0.3,3.8-1C26.1,133.1,26.5,132.2,26.5,131z"/>
		<path fill="#F7F7F6" d="M59.7,140.3c-0.3-0.8-0.6-1.6-0.9-2.4c-0.2-0.8-0.4-1.7-0.5-2.6c-0.9,1.6-2.2,3-3.7,4.1s-3.3,1.6-5.5,1.6
			c-3.5,0-6.2-0.9-8.1-2.7s-2.9-4.3-2.9-7.4c0-3.3,1.3-5.8,3.8-7.7c2.5-1.8,6.2-2.7,11.1-2.7h5.1v-2.7c0-1.6-0.4-2.9-1.3-3.8
			c-0.8-0.9-2.1-1.3-3.8-1.3c-1.5,0-2.6,0.4-3.4,1.1c-0.8,0.7-1.2,1.7-1.2,3l-8.8,0l0-0.2c-0.1-2.8,1.1-5.3,3.7-7.3
			c2.6-2.1,6-3.1,10.3-3.1c4,0,7.3,1,9.8,3.1c2.5,2,3.8,4.9,3.8,8.7v13.9c0,1.6,0.1,3.1,0.4,4.4c0.2,1.4,0.6,2.8,1.1,4.1H59.7z
			 M51.4,134.2c1.6,0,3-0.4,4.3-1.2c1.2-0.8,2.1-1.7,2.5-2.7v-4.8h-5.1c-1.9,0-3.4,0.5-4.4,1.4c-1,1-1.5,2.1-1.5,3.5
			c0,1.1,0.4,2,1.1,2.7C49.1,133.9,50.1,134.2,51.4,134.2z"/>
		<path fill="#F7F7F6" d="M81.5,106.7l0.4,4.4c1.1-1.6,2.4-2.9,4.1-3.7c1.6-0.9,3.5-1.3,5.6-1.3c2.2,0,4,0.5,5.5,1.4
			c1.5,1,2.7,2.4,3.5,4.3c1-1.8,2.4-3.2,4-4.2c1.7-1,3.6-1.5,5.8-1.5c3.3,0,5.9,1.1,7.8,3.4c1.9,2.3,2.9,5.8,2.9,10.5v20.3h-9.1
			v-20.4c0-2.6-0.4-4.3-1.2-5.3c-0.8-1-2.1-1.5-3.7-1.5c-1.3,0-2.4,0.3-3.3,0.9c-0.9,0.6-1.7,1.4-2.3,2.4c0,0.4,0,0.7,0,1
			c0,0.3,0,0.6,0,0.9v22.1h-9v-20.4c0-2.5-0.4-4.2-1.2-5.3c-0.8-1-2.1-1.5-3.7-1.5c-1.2,0-2.3,0.2-3.2,0.7c-0.9,0.5-1.7,1.1-2.3,2
			v24.6h-9v-33.6H81.5z"/>
		<path fill="#F7F7F6" d="M132.7,98.1v8.6h7.4v3h-7.4v21.9c0,2.2,0.4,3.8,1.2,4.7c0.8,0.9,1.9,1.4,3.2,1.4c0.6,0,1.2,0,1.8-0.1
			c0.6-0.1,1.2-0.1,2-0.3l0.6,2.8c-0.6,0.3-1.4,0.5-2.3,0.6c-0.9,0.1-1.8,0.2-2.7,0.2c-2.4,0-4.2-0.7-5.5-2.2c-1.3-1.5-2-3.9-2-7.1
			v-21.9h-5.8v-3h5.8v-8.6H132.7z"/>
		<path fill="#F7F7F6" d="M167.4,140.3c-0.2-1.1-0.4-2.1-0.5-3c-0.1-0.8-0.2-1.7-0.2-2.5c-1.2,1.8-2.9,3.2-5,4.4
			c-2.1,1.2-4.4,1.7-7,1.7c-3.3,0-5.8-0.9-7.6-2.6c-1.8-1.7-2.7-4.1-2.7-7c0-3.1,1.3-5.6,4-7.5c2.7-1.9,6.3-2.8,10.9-2.8h7.4v-4.2
			c0-2.4-0.8-4.3-2.3-5.7c-1.5-1.4-3.7-2-6.5-2c-2.6,0-4.7,0.7-6.4,2c-1.7,1.3-2.6,2.9-2.6,4.8l-3.4,0l-0.1-0.2
			c-0.1-2.5,1-4.7,3.4-6.7c2.4-2,5.5-3,9.2-3c3.7,0,6.7,0.9,8.9,2.8c2.3,1.9,3.4,4.6,3.4,8.1v16.5c0,1.2,0.1,2.3,0.2,3.4
			c0.1,1.1,0.4,2.2,0.7,3.3H167.4z M155.1,137.6c2.7,0,5-0.6,7.1-1.9c2.1-1.3,3.5-2.9,4.4-4.8v-7h-7.5c-3.4,0-6.1,0.7-8.1,2.2
			c-2,1.4-3,3.2-3,5.4c0,1.8,0.6,3.3,1.9,4.5S152.9,137.6,155.1,137.6z"/>
		<path fill="#F7F7F6" d="M186.7,131.9l1.1,3.9h0.2l1.2-3.9l9.1-25.2h3.9l-12.8,33.6h-3l-12.8-33.6h3.9L186.7,131.9z"/>
		<path fill="#F7F7F6" d="M210.6,140.3h-3.7V91.8h3.7V140.3z"/>
		<path fill="#F7F7F6" d="M239.9,140.3c-0.2-1.1-0.4-2.1-0.5-3c-0.1-0.8-0.2-1.7-0.2-2.5c-1.2,1.8-2.9,3.2-5,4.4
			c-2.1,1.2-4.4,1.7-7,1.7c-3.3,0-5.8-0.9-7.6-2.6c-1.8-1.7-2.7-4.1-2.7-7c0-3.1,1.3-5.6,4-7.5c2.7-1.9,6.3-2.8,10.9-2.8h7.4v-4.2
			c0-2.4-0.8-4.3-2.3-5.7c-1.5-1.4-3.7-2-6.5-2c-2.6,0-4.7,0.7-6.4,2c-1.7,1.3-2.6,2.9-2.6,4.8l-3.4,0l-0.1-0.2
			c-0.1-2.5,1-4.7,3.4-6.7c2.4-2,5.5-3,9.2-3c3.7,0,6.7,0.9,8.9,2.8c2.3,1.9,3.4,4.6,3.4,8.1v16.5c0,1.2,0.1,2.3,0.2,3.4
			c0.1,1.1,0.4,2.2,0.7,3.3H239.9z M227.7,137.6c2.7,0,5-0.6,7.1-1.9c2.1-1.3,3.5-2.9,4.4-4.8v-7h-7.5c-3.4,0-6.1,0.7-8.1,2.2
			c-2,1.4-3,3.2-3,5.4c0,1.8,0.6,3.3,1.9,4.5S225.5,137.6,227.7,137.6z"/>
	</g>
	<g>
		<path fill="#FFFFFF" d="M126.4,11.6c15.1,0,27.3,12.3,27.3,27.3s-12.3,27.3-27.3,27.3h-23.1l3.8-3.8l2.1-2.1l-2.1-2.1
			c-5.2-5.2-8-12-8-19.3C99.1,23.8,111.4,11.6,126.4,11.6 M126.4,8.6c-16.7,0-30.3,13.6-30.3,30.3c0,8.4,3.4,16,8.9,21.4l-8.9,8.9
			h30.3c16.7,0,30.3-13.6,30.3-30.3C156.8,22.2,143.2,8.6,126.4,8.6L126.4,8.6z"/>
	</g>
	<g>
		<path fill="#F7F7F6" d="M16.3,168c-1.6,0-2.9-0.6-4-1.8s-1.6-2.7-1.6-4.5v-0.6c0-1.8,0.5-3.3,1.6-4.5s2.3-1.8,3.8-1.8
			c1.6,0,2.8,0.5,3.7,1.5s1.3,2.3,1.3,3.9v1.2h-9v0.3c0,1.4,0.4,2.6,1.1,3.6c0.8,1,1.8,1.4,3,1.4c0.9,0,1.6-0.1,2.2-0.4
			s1.1-0.6,1.6-1l0.6,1c-0.5,0.5-1.1,0.9-1.8,1.2S17.3,168,16.3,168z M16.1,156c-1,0-1.9,0.4-2.6,1.2c-0.7,0.8-1.1,1.8-1.2,3l0,0.1
			h7.4v-0.4c0-1.1-0.3-2-1-2.8C18.1,156.4,17.2,156,16.1,156z"/>
		<path fill="#F7F7F6" d="M25.7,151.8v3.2h2.8v1.1h-2.8v8.3c0,0.8,0.2,1.4,0.5,1.8s0.7,0.5,1.2,0.5c0.2,0,0.4,0,0.7,0
			s0.5-0.1,0.7-0.1l0.2,1c-0.2,0.1-0.5,0.2-0.9,0.2s-0.7,0.1-1,0.1c-0.9,0-1.6-0.3-2.1-0.8s-0.7-1.5-0.7-2.7v-8.3h-2.2V155h2.2v-3.2
			H25.7z"/>
		<path fill="#F7F7F6" d="M44.6,164.5c0-0.6-0.2-1.1-0.7-1.6c-0.5-0.4-1.4-0.8-2.6-1.1c-1.5-0.3-2.6-0.8-3.4-1.3s-1.1-1.3-1.1-2.3
			c0-1,0.4-1.8,1.2-2.5s1.9-1,3.2-1c1.4,0,2.6,0.4,3.4,1.1s1.2,1.6,1.2,2.7l0,0.1h-1.3c0-0.7-0.3-1.3-0.9-1.8s-1.4-0.8-2.4-0.8
			c-1,0-1.8,0.2-2.3,0.7c-0.5,0.4-0.8,1-0.8,1.5c0,0.6,0.2,1.1,0.7,1.4s1.3,0.7,2.6,1c1.5,0.3,2.6,0.8,3.4,1.4
			c0.8,0.6,1.1,1.4,1.1,2.4c0,1.1-0.4,1.9-1.3,2.6c-0.9,0.7-2,1-3.4,1c-1.5,0-2.7-0.4-3.6-1.1s-1.3-1.6-1.2-2.6l0-0.1h1.3
			c0.1,0.9,0.4,1.6,1.1,2s1.5,0.6,2.4,0.6c1,0,1.8-0.2,2.4-0.7C44.3,165.6,44.6,165.1,44.6,164.5z"/>
		<path fill="#F7F7F6" d="M51,151.8v3.2h2.8v1.1H51v8.3c0,0.8,0.2,1.4,0.5,1.8s0.7,0.5,1.2,0.5c0.2,0,0.4,0,0.7,0s0.5-0.1,0.7-0.1
			l0.2,1c-0.2,0.1-0.5,0.2-0.9,0.2s-0.7,0.1-1,0.1c-0.9,0-1.6-0.3-2.1-0.8s-0.7-1.5-0.7-2.7v-8.3h-2.2V155h2.2v-3.2H51z"/>
		<path fill="#F7F7F6" d="M60.6,168c-1.6,0-2.9-0.6-4-1.8s-1.6-2.7-1.6-4.5v-0.6c0-1.8,0.5-3.3,1.6-4.5s2.3-1.8,3.8-1.8
			c1.6,0,2.8,0.5,3.7,1.5c0.9,1,1.3,2.3,1.3,3.9v1.2h-9v0.3c0,1.4,0.4,2.6,1.1,3.6c0.8,1,1.8,1.4,3,1.4c0.9,0,1.6-0.1,2.2-0.4
			s1.1-0.6,1.6-1l0.6,1c-0.5,0.5-1.1,0.9-1.8,1.2S61.6,168,60.6,168z M60.4,156c-1,0-1.9,0.4-2.6,1.2c-0.7,0.8-1.1,1.8-1.2,3l0,0.1
			H64v-0.4c0-1.1-0.3-2-1-2.8C62.4,156.4,61.5,156,60.4,156z"/>
		<path fill="#F7F7F6" d="M67.4,161.5c0-2,0.4-3.6,1.3-4.9s2-1.8,3.6-1.8c0.9,0,1.6,0.2,2.3,0.6s1.2,0.9,1.6,1.6v-7.5h1.4v18.3h-1.2
			l-0.1-1.8c-0.4,0.7-1,1.2-1.6,1.5s-1.4,0.5-2.3,0.5c-1.5,0-2.7-0.6-3.6-1.7s-1.3-2.6-1.3-4.5V161.5z M68.8,161.7
			c0,1.5,0.3,2.8,0.9,3.7s1.5,1.4,2.8,1.4c0.9,0,1.7-0.2,2.3-0.6c0.6-0.4,1.1-1,1.4-1.7v-6c-0.3-0.7-0.8-1.3-1.4-1.8
			s-1.4-0.7-2.3-0.7c-1.2,0-2.2,0.5-2.8,1.5s-0.9,2.3-0.9,4V161.7z"/>
		<path fill="#F7F7F6" d="M94.9,167.7c-0.1-0.4-0.2-0.8-0.2-1.1s-0.1-0.6-0.1-0.9c-0.5,0.7-1.1,1.2-1.9,1.7s-1.7,0.7-2.6,0.7
			c-1.2,0-2.2-0.3-2.9-1s-1-1.5-1-2.6c0-1.2,0.5-2.1,1.5-2.8s2.4-1.1,4.1-1.1h2.8v-1.6c0-0.9-0.3-1.6-0.9-2.1s-1.4-0.8-2.4-0.8
			c-1,0-1.8,0.2-2.4,0.7s-1,1.1-1,1.8l-1.3,0l0-0.1c0-0.9,0.4-1.8,1.3-2.5s2.1-1.1,3.5-1.1c1.4,0,2.5,0.4,3.4,1.1s1.3,1.7,1.3,3.1
			v6.2c0,0.4,0,0.9,0.1,1.3s0.1,0.8,0.3,1.3H94.9z M90.3,166.7c1,0,1.9-0.2,2.7-0.7s1.3-1.1,1.7-1.8v-2.6h-2.8
			c-1.3,0-2.3,0.3-3.1,0.8s-1.1,1.2-1.1,2c0,0.7,0.2,1.2,0.7,1.7S89.5,166.7,90.3,166.7z M89.4,151.2c0-0.5,0.2-1,0.6-1.4
			s0.9-0.6,1.4-0.6c0.5,0,1,0.2,1.4,0.6s0.6,0.8,0.6,1.4c0,0.6-0.2,1-0.6,1.4s-0.8,0.5-1.4,0.5c-0.6,0-1-0.2-1.4-0.5
			S89.4,151.8,89.4,151.2z M90.3,151.2c0,0.3,0.1,0.6,0.3,0.8s0.5,0.3,0.8,0.3c0.3,0,0.5-0.1,0.7-0.3s0.3-0.5,0.3-0.8
			s-0.1-0.6-0.3-0.8s-0.4-0.3-0.7-0.3c-0.3,0-0.5,0.1-0.8,0.3S90.3,150.9,90.3,151.2z"/>
		<path fill="#F7F7F6" d="M104.8,161.5c0-2,0.4-3.6,1.3-4.9s2-1.8,3.6-1.8c0.9,0,1.6,0.2,2.3,0.6s1.2,0.9,1.6,1.6v-7.5h1.4v18.3
			h-1.2l-0.1-1.8c-0.4,0.7-1,1.2-1.6,1.5s-1.4,0.5-2.3,0.5c-1.5,0-2.7-0.6-3.6-1.7s-1.3-2.6-1.3-4.5V161.5z M106.2,161.7
			c0,1.5,0.3,2.8,0.9,3.7s1.5,1.4,2.8,1.4c0.9,0,1.7-0.2,2.3-0.6c0.6-0.4,1.1-1,1.4-1.7v-6c-0.3-0.7-0.8-1.3-1.4-1.8
			s-1.4-0.7-2.3-0.7c-1.2,0-2.2,0.5-2.8,1.5s-0.9,2.3-0.9,4V161.7z"/>
		<path fill="#F7F7F6" d="M123.2,168c-1.6,0-2.9-0.6-4-1.8s-1.6-2.7-1.6-4.5v-0.6c0-1.8,0.5-3.3,1.6-4.5s2.3-1.8,3.8-1.8
			c1.6,0,2.8,0.5,3.7,1.5s1.3,2.3,1.3,3.9v1.2h-9v0.3c0,1.4,0.4,2.6,1.1,3.6c0.8,1,1.8,1.4,3,1.4c0.9,0,1.6-0.1,2.2-0.4
			s1.1-0.6,1.6-1l0.6,1c-0.5,0.5-1.1,0.9-1.8,1.2S124.2,168,123.2,168z M123,156c-1,0-1.9,0.4-2.6,1.2c-0.7,0.8-1.1,1.8-1.2,3l0,0.1
			h7.4v-0.4c0-1.1-0.3-2-1-2.8C125,156.4,124.1,156,123,156z"/>
		<path fill="#F7F7F6" d="M131.9,167.7h-1.4v-18.3h1.4V167.7z"/>
		<path fill="#F7F7F6" d="M140.1,168c-1.6,0-2.9-0.6-4-1.8s-1.6-2.7-1.6-4.5v-0.6c0-1.8,0.5-3.3,1.6-4.5s2.3-1.8,3.8-1.8
			c1.6,0,2.8,0.5,3.7,1.5s1.3,2.3,1.3,3.9v1.2h-9v0.3c0,1.4,0.4,2.6,1.1,3.6c0.8,1,1.8,1.4,3,1.4c0.9,0,1.6-0.1,2.2-0.4
			s1.1-0.6,1.6-1l0.6,1c-0.5,0.5-1.1,0.9-1.8,1.2S141.1,168,140.1,168z M140,156c-1,0-1.9,0.4-2.6,1.2c-0.7,0.8-1.1,1.8-1.2,3l0,0.1
			h7.4v-0.4c0-1.1-0.3-2-1-2.8C141.9,156.4,141.1,156,140,156z"/>
		<path fill="#F7F7F6" d="M160.9,164.5c0-0.6-0.2-1.1-0.7-1.6c-0.5-0.4-1.4-0.8-2.6-1.1c-1.5-0.3-2.6-0.8-3.4-1.3s-1.1-1.3-1.1-2.3
			c0-1,0.4-1.8,1.2-2.5s1.9-1,3.2-1c1.4,0,2.6,0.4,3.4,1.1s1.2,1.6,1.2,2.7l0,0.1h-1.3c0-0.7-0.3-1.3-0.9-1.8s-1.4-0.8-2.4-0.8
			c-1,0-1.8,0.2-2.3,0.7c-0.5,0.4-0.8,1-0.8,1.5c0,0.6,0.2,1.1,0.7,1.4s1.3,0.7,2.6,1c1.5,0.3,2.6,0.8,3.4,1.4
			c0.8,0.6,1.1,1.4,1.1,2.4c0,1.1-0.4,1.9-1.3,2.6c-0.9,0.7-2,1-3.4,1c-1.5,0-2.7-0.4-3.6-1.1s-1.3-1.6-1.2-2.6l0-0.1h1.3
			c0.1,0.9,0.4,1.6,1.1,2s1.5,0.6,2.4,0.6c1,0,1.8-0.2,2.4-0.7C160.6,165.6,160.9,165.1,160.9,164.5z"/>
		<path fill="#F7F7F6" d="M173.1,167.7c-0.1-0.4-0.2-0.8-0.2-1.1s-0.1-0.6-0.1-0.9c-0.5,0.7-1.1,1.2-1.9,1.7s-1.7,0.7-2.6,0.7
			c-1.2,0-2.2-0.3-2.9-1s-1-1.5-1-2.6c0-1.2,0.5-2.1,1.5-2.8s2.4-1.1,4.1-1.1h2.8v-1.6c0-0.9-0.3-1.6-0.9-2.1s-1.4-0.8-2.4-0.8
			c-1,0-1.8,0.2-2.4,0.7s-1,1.1-1,1.8l-1.3,0l0-0.1c0-0.9,0.4-1.8,1.3-2.5s2.1-1.1,3.5-1.1c1.4,0,2.5,0.4,3.4,1.1s1.3,1.7,1.3,3.1
			v6.2c0,0.4,0,0.9,0.1,1.3s0.1,0.8,0.3,1.3H173.1z M168.5,166.7c1,0,1.9-0.2,2.7-0.7s1.3-1.1,1.7-1.8v-2.6h-2.8
			c-1.3,0-2.3,0.3-3.1,0.8s-1.1,1.2-1.1,2c0,0.7,0.2,1.2,0.7,1.7S167.7,166.7,168.5,166.7z"/>
		<path fill="#F7F7F6" d="M178.7,155l0.1,2.1c0.4-0.7,0.9-1.3,1.6-1.7s1.5-0.6,2.4-0.6c1,0,1.8,0.2,2.4,0.7s1.1,1.2,1.4,2.1
			c0.4-0.9,0.9-1.6,1.6-2.1s1.6-0.8,2.6-0.8c1.4,0,2.4,0.4,3.1,1.3s1.1,2.3,1.1,4.2v7.4h-1.4v-7.4c0-1.6-0.3-2.7-0.8-3.3
			c-0.6-0.6-1.3-1-2.3-1c-1.1,0-1.9,0.3-2.5,1c-0.6,0.7-1,1.6-1.1,2.6c0,0.1,0,0.1,0,0.2c0,0.1,0,0.2,0,0.2v7.6h-1.4v-7.4
			c0-1.5-0.3-2.6-0.8-3.3c-0.6-0.7-1.3-1-2.3-1c-1,0-1.8,0.3-2.4,0.8c-0.6,0.5-1,1.2-1.2,2v8.9h-1.4V155H178.7z"/>
		<path fill="#F7F7F6" d="M200.3,151.8v3.2h2.8v1.1h-2.8v8.3c0,0.8,0.2,1.4,0.5,1.8s0.7,0.5,1.2,0.5c0.2,0,0.4,0,0.7,0
			s0.5-0.1,0.7-0.1l0.2,1c-0.2,0.1-0.5,0.2-0.9,0.2s-0.7,0.1-1,0.1c-0.9,0-1.6-0.3-2.1-0.8s-0.7-1.5-0.7-2.7v-8.3h-2.2V155h2.2v-3.2
			H200.3z"/>
		<path fill="#F7F7F6" d="M213.7,167.7c-0.1-0.4-0.2-0.8-0.2-1.1s-0.1-0.6-0.1-0.9c-0.5,0.7-1.1,1.2-1.9,1.7s-1.7,0.7-2.6,0.7
			c-1.2,0-2.2-0.3-2.9-1s-1-1.5-1-2.6c0-1.2,0.5-2.1,1.5-2.8s2.4-1.1,4.1-1.1h2.8v-1.6c0-0.9-0.3-1.6-0.9-2.1s-1.4-0.8-2.4-0.8
			c-1,0-1.8,0.2-2.4,0.7s-1,1.1-1,1.8l-1.3,0l0-0.1c0-0.9,0.4-1.8,1.3-2.5s2.1-1.1,3.5-1.1c1.4,0,2.5,0.4,3.4,1.1s1.3,1.7,1.3,3.1
			v6.2c0,0.4,0,0.9,0.1,1.3s0.1,0.8,0.3,1.3H213.7z M209.1,166.7c1,0,1.9-0.2,2.7-0.7s1.3-1.1,1.7-1.8v-2.6h-2.8
			c-1.3,0-2.3,0.3-3.1,0.8s-1.1,1.2-1.1,2c0,0.7,0.2,1.2,0.7,1.7S208.3,166.7,209.1,166.7z"/>
		<path fill="#F7F7F6" d="M219.6,167.7h-1.4v-18.3h1.4V167.7z"/>
		<path fill="#F7F7F6" d="M227.8,168c-1.6,0-2.9-0.6-4-1.8s-1.6-2.7-1.6-4.5v-0.6c0-1.8,0.5-3.3,1.6-4.5s2.3-1.8,3.8-1.8
			c1.6,0,2.8,0.5,3.7,1.5s1.3,2.3,1.3,3.9v1.2h-9v0.3c0,1.4,0.4,2.6,1.1,3.6c0.8,1,1.8,1.4,3,1.4c0.9,0,1.6-0.1,2.2-0.4
			s1.1-0.6,1.6-1l0.6,1c-0.5,0.5-1.1,0.9-1.8,1.2S228.8,168,227.8,168z M227.6,156c-1,0-1.9,0.4-2.6,1.2c-0.7,0.8-1.1,1.8-1.2,3
			l0,0.1h7.4v-0.4c0-1.1-0.3-2-1-2.8C229.6,156.4,228.7,156,227.6,156z"/>
		<path fill="#F7F7F6" d="M240.9,156.2l-1-0.1c-0.9,0-1.6,0.2-2.2,0.7s-1,1.2-1.2,2v8.8H235V155h1.2l0.2,2.1v0.1
			c0.4-0.8,0.9-1.4,1.5-1.8s1.4-0.7,2.2-0.7c0.2,0,0.4,0,0.5,0s0.3,0.1,0.4,0.1L240.9,156.2z"/>
	</g>
</g>
</svg>
