<svg version="1.1" id="Layer_1" xmlns="http://www.w3.org/2000/svg" x="0" y="0" width="350" height="300" viewBox="-245 445.5 350 300" xml:space="preserve"><style type="text/css">.st0{fill:#fdeae5}.st1{fill:#683c11}.st2{fill:#00838f}.st3{fill:#432918}.st4{fill:#00bcd4}.st5{fill:#fff}.st6{fill:#b18a7f}.st7{fill:#3c3c3b}.st8{fill:#f70}.st9{fill:#1db8d1}.st10{fill:#00acc1}</style><g id="Layer_1_1_"><path class="st0" d="M-14.9 678.6c.2-.2 1.1-1 1.4-1.3 2.1-2 6.5-5.2 9.4-7.6 3.9-3.2 11.9-2.5 11.9-2.5l-2.9 10.5s-4.1.1-5.9.7c-2.1.7-8.5 3.8-10 4.5s-3 1-4.1-.2-1-2.9.2-4.1zM-10.3 627.2s-4.6-3.2-7.3-4.8-7 7.9-4.2 10 4.8 3.8 4.8 3.8l6.7-9zM1.9 550.8c-.6 5.2 1.8 13 1.8 13L1.1 574l5.4.8s-1 16.1 15.4 19.5c23.3 4.8 42.4-14.1 39.5-34.6-2.5-17.4-13.7-32.2-33-32-19.2.1-25.9 17.8-26.5 23.1z"/><path class="st1" d="M22.1 546.3s-6.7 14.2-22.6 15.8c0 0-4-20.6 11.2-27.5 15.1-6.9 29.3-2.9 29.3-2.9l16.3 12.1s7.3 9.5 7.6 15.5c.3 6-1.1 17.2-11.1 26.1 0 0-4.7-.8-8.4-4.1-2.8-2.5-4.7-7.5-4.7-7.5 1.7.5 4.3 1.1 6.2-1.7 2-3.1 1.4-13-3.8-12.9-3.9.1-5.4 5.1-5.4 5.1s-5.4-16.7-14.6-18z"/><path class="st2" d="M-1.2 548.6s77.8 12.2 80.2 12.5c2.3.3 3.1-2.3.2-3.6s-14-4.3-14-4.3C63.3 546 54 527 32.9 525c-29.6-2.9-34.1 23.6-34.1 23.6z"/><ellipse class="st3" cx="15.6" cy="564.5" rx="1.2" ry="2.4"/><path class="st1" d="M17 583.5c-1.1 0-2.2-.5-3.6-1.6-.2-.1-.3-.4-.3-.6s.1-.4.3-.6l6.4-5.4c.2-.2.5-.2.8-.1.3.1.4.4.4.7 0 .6-.1 5.9-2.8 7.2-.3.2-.7.4-1.2.4zm-1.8-2.3c.8.5 1.8.9 2.5.5 1.1-.5 1.6-2.5 1.8-4.1l-4.3 3.6z"/><path class="st0" d="M40.1 592.1l1.4 9.7-15 1.3-1.7-12z"/><path class="st4" d="M46.5 600.2c-1.8-.8-3.9-2.6-5.4-1.5-5.4 3.7-10.4 4.7-14.9 3.9-2.2-.4-3.7 2.6-4.6 4.2-3.9 7-2.1 26.5-2.4 34.4-.4 9.8-2.6 44.1-2.6 44.1h46.7s-1.2-52.4-2.4-61.1c-1.3-8.7-4.5-19.4-14.4-24z"/><path class="st5" d="M-56.1 611l-15.8 35.5c-.4 1-1.6 1.4-2.6 1l-2.4-1 17.4-39.1 2.4 1c1 .4 1.4 1.6 1 2.6z"/><path class="st6" d="M-148.4 543.3c1.3 5.1 0 13.1 0 13.1l4 9.8-5.3 1.6s3.2 15.8-12.5 21.5c-22.4 8.1-44-8-44-28.7 0-17.6 9-33.8 28.2-36.4 19.1-2.6 28.3 14 29.6 19.1z"/><path class="st7" d="M-166.3 545.8s7.6 11.2 23.7 12c0 0 5.7-31-25.7-34.1-35.4-3.5-38.8 28.6-38.7 34.6s1.8 17.2 12.2 25.5c0 0 5-1.1 8.4-4.6 2.7-2.7 4.3-7.7 4.3-7.7-1.7.6-4.3 1.4-6.3-1.4-2.2-3-2-13 3.1-13 3.9-.1 5.7 4.8 5.7 4.8s4.1-14.4 13.3-16.1z"/><ellipse transform="scale(-1) rotate(-82.415 -640.559 -182.5)" class="st3" cx="-159.8" cy="560.9" rx="2.4" ry="1.2"/><path class="st1" d="M-156.8 580.8c-2.1-.1-3.7-.8-4.7-2.2-1.7-2.1-1.1-5-1.1-5.1.1-.4.5-.7.9-.6.4.1.7.5.6.9 0 .1-.4 2.3.8 3.9.7.9 1.9 1.5 3.6 1.6.4 0 .7.4.7.8s-.4.7-.8.7z"/><path class="st6" d="M-181.7 589.8l-.9 9.8 15.1.5 1-12.1z"/><path class="st8" d="M-184.4 598.3c9.1-5.9 28.2.4 28.2.4s1.6 17.7 4.9 33.2c5 23.5 7.5 53.3 7.5 53.3h-48.1s.1-47.4-.7-60.5c-.5-8.7-1-20.6 8.2-26.4z"/><path class="st8" d="M-196.9 601.2c-8 7-10.7 15.2-8.2 19.9s7.1 7 12.6 3.5 25.4-29.1 36.3-26c0 0-9.8-5-15.2-5.1-5.4 0-17.5.7-25.5 7.7z"/><path class="st5" d="M-196.9 627.8h-.7c-3.6-.3-7-2.9-8.2-6.3-2.1-5.5-.3-14.1 8.5-20.8 12.7-9.7 29.9-8.8 37.6-5.1 2.6 1.3 4.1 2.8 4.1 4.4 0 .7-.2 1.3-.6 1.7-.8.8-2 .7-3.9.7-5.8-.2-17.8-.6-31.8 22.7-1 1.7-2.8 2.7-5 2.7zm23.4-33.3c-7.4 0-15.9 2-23 7.4-8.1 6.2-9.8 14.2-8 19.1 1.2 3.2 4.4 5.1 7 5.3 1.1.1 3.1 0 4.3-1.9 14.4-24.1 27-23.7 33-23.5 1.3 0 2.5.1 2.8-.2.1-.1.1-.4.1-.6 0-1-1.2-2.1-3.2-3.1-3-1.5-7.7-2.5-13-2.5zm-23.4 6.7z"/><path class="st5" d="M-155.1 634.2c-.4 0-.7-.3-.7-.6l-5.7-34.1c-.1-.4.2-.8.6-.9.4-.1.8.2.9.6l5.7 34.1c.1.4-.2.8-.6.9h-.2z"/><path class="st8" d="M-178.9 622.5c.8 8.8 2.2 20.4 3.5 27.9 1.2 6.9 9.6 6.9 9.6 6.9l40.2-9.5-1-10.9-33.1 3.1s1.3-11.3 1.2-17.4"/><ellipse transform="rotate(130.95 -208.828 532.265)" class="st7" cx="-208.8" cy="532.3" rx="13.9" ry="10.9"/><path class="st4" d="M19.2 617.2L9.1 638.6l-21-12.4-5.1 9.9 22.9 18s7.3 5.6 13.6-.1c3.9-3.5 13.7-19.8 13.7-19.8l-14-17z"/><path class="st4" d="M53.7 629.6s-2.2 30.1-3.1 34.7c-.9 4.5-3.3 8.6-13.3 10.1-11.5 1.7-32.5 3.6-32.5 3.6L4 666.8l30.6-8.5v-28.7"/><path class="st5" d="M4 678.8l-.7-12.6 30.8-8.8-1.6-28.4c0-.4.3-.8.7-.8s.8.3.8.7l1.6 29.6-30.8 8.8.5 9.9c3.9-.3 21.9-1.5 32.8-3.7 9.5-1.9 11.5-6.6 12.1-10.9.7-4.5 1.1-34.3 1.1-34.6 0-.4.3-.7.8-.7.4 0 .7.3.7.8 0 1.2-.4 30.2-1.1 34.8-.7 4.5-2.8 10-13.3 12.1-12.3 2.5-33.5 3.8-33.8 3.8H4z"/><path class="st1" d="M6.8 536.3c2.6-1.9 4.2 9 3.6 11.9l-9.2-1.5c0-.1 3-8.5 5.6-10.4z"/><path class="st5" d="M65 556c-.4 0-.7-.3-.7-.6-.7-5-3.1-10.5-6.8-15.4-1.7-2.2-16.8-21.3-41.7-12-.4.1-.8-.1-1-.4-.1-.4.1-.8.4-1 25.9-9.7 41.7 10.2 43.4 12.5 3.8 5.1 6.3 10.8 7.1 16.1.1.4-.2.8-.7.8zM1.1 547H.9c-.4-.1-.7-.5-.6-.9.9-4.5 4.5-11.1 7.6-10.7.4 0 .7.4.7.8s-.4.7-.8.7c-1.8-.2-5.1 5-6 9.5-.1.4-.4.6-.7.6zM18.2 658c-.5 0-.8-.4-.7-.8 0-.1.5-6.2.9-15.9.1-2 0-4.8 0-7.9-.2-9.6-.5-21.5 2.5-26.9l.1-.2c1-1.8 2.6-4.8 5.3-4.3 4.7.8 9.5-.5 14.4-3.8.3-.2.8-.1 1 .2s.1.8-.2 1c-5.2 3.5-10.4 4.9-15.5 4-1.6-.3-2.9 2.1-3.7 3.6l-.1.2c-2.8 5-2.5 17.2-2.3 26.1.1 3.2.1 6 0 8-.4 9.7-.9 15.9-.9 16-.1.5-.4.7-.8.7zM-11.5 602l-13 44.3c-.3 1-1.4 1.6-2.4 1.3l-1.5-.3 14.1-48 1.5.3c1 .4 1.6 1.4 1.3 2.4z"/><path class="st6" d="M-107.6 638.5c-6.5-.6-18.8.1-18.8.1l.7 9s16-.2 17.9-.4c2.4-.3 4.4-1.8 4.4-4.2.1-2.5-1.8-4.4-4.2-4.5z"/><path class="st5" d="M-167.6 658.1c-5.6 0-6.8-3.5-8.5-8.8l-.4-1.3c-2.7-8.2-4-18.3-4.6-25.4 0-.4.3-.8.7-.8s.8.3.8.7c.6 7 1.9 17 4.5 25l.4 1.3c1.9 5.9 2.7 8.4 8.8 7.7 3-.3 34.7-8.2 39.5-9.4l-.8-9.6-33 3.1-.1-.7c-.1-.7-2.6-16.2-2.7-22.3 0-.4.3-.8.7-.8s.8.3.8.7c.1 5.2 2.1 18.2 2.6 21.3l33.1-3.1 1.1 12.3-.6.2c-1.5.4-37 9.2-40.3 9.5-.8.4-1.5.4-2 .4z"/><path class="st5" d="M-73.8 648.5h-49.8c-1.2 0-2.2-1-2.2-2.2v-2.4h54.1v2.4c0 1.2-.9 2.2-2.1 2.2z"/><path class="st9" d="M-125.8 647.5v10h13v28h6.6v-28h74.4v28h6.7v-28h14.5v-10z"/><path class="st10" d="M-31.8 520h-77c-.4 0-.8-.3-.8-.8s.3-.8.8-.8h77c.4 0 .8.3.8.8s-.4.8-.8.8zM-31.8 528.3h-77c-.4 0-.8-.3-.8-.8s.3-.8.8-.8h77c.4 0 .8.3.8.8s-.4.8-.8.8zM-50.2 536.8h-58.6c-.4 0-.8-.3-.8-.8s.3-.8.8-.8h58.6c.4 0 .8.3.8.8s-.4.8-.8.8z"/><path class="st10" d="M-31.6 550.6h-77.7c-8.1 0-14.6-6.6-14.6-14.6v-15.8c0-8.1 6.6-14.6 14.6-14.6.4 0 .8.3.8.8s-.3.8-.8.8c-7.2 0-13.1 5.9-13.1 13.1v15.8c0 7.2 5.9 13.1 13.1 13.1h77.7c7.2 0 13.1-5.9 13.1-13.1v-15.8c0-7.2-5.9-13.1-13.1-13.1h-70.6c-.4 0-.8-.3-.8-.8s.3-.8.8-.8h70.6c8.1 0 14.6 6.6 14.6 14.6V536c0 8-6.5 14.6-14.6 14.6zM-27.7 606.1c-.2 0-.3-.1-.5-.2-9.3-8-14.5-20.6-14.5-35.4 0-.4.3-.8.8-.8s.8.3.8.8c0 14.4 4.9 26.5 13.9 34.3.3.3.3.7.1 1.1-.2.1-.4.2-.6.2zM-128.3 600.8c-.4 0-.8-.3-.8-.8s.3-.8.8-.8c18.4 0 33.4-15 33.4-33.4 0-.4.3-.8.8-.8s.8.3.8.8c-.1 19.3-15.8 35-35 35z"/></g></svg>